<svg width="120" height="120" viewBox="0 0 120 120" fill="none" xmlns="http://www.w3.org/2000/svg">
<path d="M75.9964 100H44.0032V112H75.9964V100Z" fill="#E0E0E0"/>
<path d="M69.9977 100H44.0032V112H69.9977V100Z" fill="white"/>
<path d="M117.988 86.0001V92.9001C118.274 97.616 114.702 101.679 109.99 102H10.0104C5.29788 101.679 1.72652 97.616 2.01216 92.9001V86.0001H117.988Z" fill="#E0E0E0"/>
<path d="M111.989 86.0001V92.9001C112.275 97.616 108.703 101.679 103.991 102H10.0104C5.29788 101.679 1.72652 97.616 2.01216 92.9001V86.0001H111.989Z" fill="white"/>
<path d="M117.988 11.1V86.0001H2.01192V11.1C1.72651 6.38415 5.29764 2.32102 10.0104 1.99992H109.99C114.702 2.32102 118.273 6.38415 117.988 11.1Z" fill="white"/>
<path d="M111.989 11.1V86.0001H2.01192V11.1C1.72651 6.38415 5.29764 2.32102 10.0104 1.99992H103.991C108.703 2.32102 112.275 6.38415 111.989 11.1Z" fill="#5F7D95"/>
<path d="M40.0041 20.4199V45.26C39.9835 45.6835 39.6281 46.0126 39.2044 45.9999H16.8089C16.3895 46.0215 16.0317 45.6994 16.0092 45.2799V20.4199L27.3869 10.2199C27.7456 9.91969 28.2679 9.91969 28.6267 10.2199L40.0041 20.4199Z" fill="white"/>
<path d="M28.0067 54.0001V66.0001L18.0087 72.0001L17.7286 72.1801C16.5964 70.3182 16.0012 68.1793 16.0089 66.0001C16.0092 59.3727 21.3806 54.0001 28.0067 54.0001Z" fill="#FFEB3A"/>
<path d="M40.0042 66.0001C40.0138 69.1841 38.7461 72.239 36.4848 74.4801L28.0067 66.0001V54.0001C34.6327 54.0001 40.0042 59.3727 40.0042 66.0001Z" fill="#8BC34A"/>
<path d="M36.4848 74.4801C33.8775 77.095 30.21 78.3609 26.5452 77.9116C22.8803 77.4623 19.6274 75.3475 17.7286 72.1801L18.0087 72.0001L28.0067 66.0001L36.4848 74.4801Z" fill="#E91E63"/>
<path d="M67.9982 12H71.9974C73.1018 12 73.9969 12.8955 73.9969 13.9999V38H65.9987V13.9999C65.9987 12.8953 66.8938 12 67.9982 12Z" fill="#FFEB3A"/>
<path d="M83.455 22.0001H88.534C89.3401 22.0001 89.9936 22.6538 89.9936 23.46V38H81.9954V23.46C81.9954 22.6538 82.6489 22.0001 83.455 22.0001Z" fill="#E91E63"/>
<path d="M99.1457 28.0001H104.834C105.472 28.0001 105.988 28.5167 105.988 29.1542V38.0002H97.9919V29.1542C97.9919 28.5167 98.5086 28.0001 99.1457 28.0001Z" fill="#8BC34A"/>
<path d="M91.9931 116V118H28.0067V116C28.0067 112.687 30.6925 110 34.0054 110H85.9946C89.3075 110 91.9931 112.687 91.9931 116Z" fill="#E0E0E0"/>
<path d="M85.9944 116V118H28.0067V116C28.0067 112.687 30.6925 110 34.0054 110H79.9959C83.3088 110 85.9944 112.687 85.9944 116Z" fill="white"/>
<path d="M13.3437 25.49L28.0066 12.3619L42.6696 25.49C43.2006 25.9744 43.9509 26.1366 44.6344 25.9147C45.3182 25.6927 45.8299 25.1208 45.9752 24.4165C46.1205 23.7125 45.8768 22.9845 45.3369 22.5099L29.9201 8.70986C28.8045 7.75665 27.1577 7.76954 26.057 8.73986L18.0086 15.9441V15C18.0086 13.8954 17.1133 13.0001 16.0091 13.0001C14.9048 13.0001 14.0096 13.8956 14.0096 15V19.526L10.6761 22.5101C9.86558 23.2496 9.80208 24.5042 10.5339 25.3219C11.2657 26.1392 12.5196 26.2144 13.3437 25.49Z" fill="black"/>
<path d="M40.0041 28.0002C38.8998 28.0002 38.0046 28.8957 38.0046 30.0001V44H18.0087V30.0001C18.0087 28.8955 17.1133 28.0002 16.0091 28.0002C14.9048 28.0002 14.0096 28.8957 14.0096 30.0001V45.2701C14.0293 46.7971 15.2825 48.0191 16.8091 48.0001H39.2044C40.732 48.0156 41.984 46.7919 42.0039 45.264V30.0001C42.0037 28.8955 41.1083 28.0002 40.0041 28.0002Z" fill="black"/>
<path d="M28.0066 52.0002C20.2762 52.0002 14.0096 58.2683 14.0096 66.0001C14.0096 73.7319 20.2765 80.0001 28.0066 80.0001C35.7368 80.0001 42.0036 73.7319 42.0036 66.0001C41.9947 58.2718 35.7333 52.0088 28.0066 52.0002ZM26.0069 56.2002V64.8662L18.6085 69.3041C18.2212 68.2452 18.0183 67.1277 18.0087 66.0001C18.0147 61.2498 21.3551 57.1569 26.0069 56.2002ZM20.668 72.7342L27.6966 68.5161L33.5114 74.3322C29.426 77.0584 23.9601 76.3773 20.668 72.7321V72.7342ZM36.3388 71.5042L30.0061 65.1721V56.2002C33.2614 56.8599 35.9754 59.0964 37.2456 62.166C38.5157 65.2356 38.1759 68.7362 36.3388 71.5042Z" fill="black"/>
<path d="M61.9994 40.0002H107.99C109.094 40.0002 109.989 39.1046 109.989 38.0002C109.989 36.8959 109.094 36.0003 107.99 36.0003V29.1542C107.989 27.4128 106.578 26.0014 104.837 26.0002H99.1457C97.4047 26.0014 95.9935 27.4128 95.9924 29.1542V36.0003H91.9931V23.4603C91.991 21.5504 90.4435 20.0025 88.5338 20.0002H83.4548C81.5455 20.0023 79.998 21.5501 79.9956 23.46V36.0001H75.9966V13.9999C75.9966 11.7907 74.2061 9.99986 71.9974 9.99986H67.9981C65.7894 9.99986 63.9989 11.7907 63.9989 13.9999V36.0001H61.9994C60.895 36.0001 59.9999 35.1045 59.9999 34.0001V10.0001C59.9999 8.89548 59.1045 8.00017 58.0004 8.00017C56.896 8.00017 56.0009 8.89572 56.0009 10.0001V34.0001C56.0007 37.3137 58.6865 40.0002 61.9994 40.0002ZM99.9916 30.0001H103.991V36.0001H99.9916V30.0001ZM83.9949 24H87.9941V36.0001H83.9949V24ZM67.9981 13.9999H71.9974V36.0001H67.9981V13.9999Z" fill="black"/>
<path d="M61.9994 80.0001H107.99C109.094 80.0001 109.989 79.1048 109.989 78.0002C109.989 76.8955 109.094 76.0002 107.99 76.0002H61.9994C60.895 76.0002 59.9999 75.1049 59.9999 74.0003V70.8283L66.5844 64.2423C67.3744 63.4839 68.6219 63.4839 69.4118 64.2423L71.7553 66.5863C74.0979 68.9287 77.8951 68.9287 80.2375 66.5863L88.5797 58.2423C89.3696 57.4839 90.6172 57.4839 91.4071 58.2423L93.7506 60.5884C96.0957 62.9242 99.8876 62.9242 102.233 60.5884L109.403 53.4163C110.161 52.6316 110.15 51.384 109.379 50.6127C108.608 49.8411 107.36 49.8303 106.576 50.5883L99.4053 57.7583C98.6245 58.539 97.3587 58.539 96.5779 57.7583L94.2345 55.4143C91.8607 53.1484 88.1258 53.1484 85.7523 55.4143L77.4101 63.7583C76.6293 64.539 75.3635 64.539 74.5827 63.7583L72.2411 61.4143C69.8669 59.1482 66.131 59.1482 63.7568 61.4143L59.9997 65.1723V50.0003C59.9997 48.8956 59.1043 48.0003 58.0001 48.0003C56.8958 48.0003 56.0006 48.8959 56.0006 50.0003V74.0003C56.0006 77.3139 58.6865 80.0001 61.9994 80.0001Z" fill="black"/>
<path d="M109.989 0H10.0104C4.19817 0.322969 -0.265741 5.27438 0.0124039 11.0899V92.9081C-0.266678 98.7246 4.19723 103.677 10.0104 104H42.0036V108H34.0054C29.5881 108 26.0071 111.582 26.0071 116V118C26.0071 119.105 26.9025 120 28.0066 120H91.9934C93.0977 120 93.9929 119.105 93.9929 118V116C93.9929 111.582 90.4119 108 85.9946 108H77.9964V104H109.99C115.803 103.677 120.267 98.7246 119.988 92.9081V11.0899C120.266 5.27438 115.802 0.322969 109.989 0ZM10.0104 4.00009H109.99C113.589 4.32962 116.259 7.48525 115.988 11.0902V84.0004H4.01165V11.0899C3.741 7.48501 6.41115 4.32938 10.0104 4.00009ZM89.9936 116H30.0061C30.0061 113.791 31.7966 112 34.0054 112H85.9946C88.2031 112 89.9936 113.791 89.9936 116ZM73.9969 108H46.0029V104H73.9971V108H73.9969ZM109.989 100H10.0104C6.41091 99.6698 3.74124 96.5135 4.01165 92.9083V88.0002H115.988V92.9083C116.259 96.5135 113.589 99.6698 109.989 100Z" fill="black"/>
</svg>
