<svg width="70" height="65" viewBox="0 0 70 65" fill="none" xmlns="http://www.w3.org/2000/svg">
<path d="M53.7447 60.1451H19.2919C19.015 60.1451 18.7495 60.044 18.5537 59.864C18.358 59.6839 18.248 59.4398 18.248 59.1852V5.81425C18.248 5.55967 18.358 5.31551 18.5537 5.13549C18.7495 4.95547 19.015 4.85434 19.2919 4.85434H53.7447C54.0216 4.85434 54.2871 4.95547 54.4829 5.13549C54.6786 5.31551 54.7886 5.55967 54.7886 5.81425V27.0145C54.7886 27.2691 54.6786 27.5133 54.4829 27.6933C54.2871 27.8733 54.0216 27.9744 53.7447 27.9744C53.4679 27.9744 53.2023 27.8733 53.0066 27.6933C52.8108 27.5133 52.7008 27.2691 52.7008 27.0145V6.77416H20.3358V58.2253H52.7008V37.9849C52.7008 37.7303 52.8108 37.4862 53.0066 37.3062C53.2023 37.1261 53.4679 37.025 53.7447 37.025C54.0216 37.025 54.2871 37.1261 54.4829 37.3062C54.6786 37.4862 54.7886 37.7303 54.7886 37.9849V59.1852C54.7886 59.4398 54.6786 59.6839 54.4829 59.864C54.2871 60.044 54.0216 60.1451 53.7447 60.1451Z" fill="black"/>
<path d="M24.7893 64.0396L1.04388 54.3352V10.6643L24.7893 0.959869V64.0396Z" fill="#CDDC39"/>
<path d="M4.623 50.6464C4.34614 50.6464 4.08062 50.5452 3.88485 50.3652C3.68908 50.1852 3.5791 49.941 3.5791 49.6865V33.9626C3.5791 33.708 3.68908 33.4639 3.88485 33.2838C4.08062 33.1038 4.34614 33.0027 4.623 33.0027C4.89986 33.0027 5.16538 33.1038 5.36115 33.2838C5.55692 33.4639 5.6669 33.708 5.6669 33.9626V49.6865C5.6669 49.941 5.55692 50.1852 5.36115 50.3652C5.16538 50.5452 4.89986 50.6464 4.623 50.6464Z" fill="black"/>
<path d="M69.6943 31.8212L62.2319 24.9587C62.0361 24.7786 61.7706 24.6775 61.4937 24.6775C61.2168 24.6775 60.9513 24.7786 60.7555 24.9587C60.5598 25.1387 60.4498 25.3829 60.4498 25.6374C60.4498 25.892 60.5598 26.1362 60.7555 26.3162L66.4361 31.5398H34.6563C34.3794 31.5398 34.1139 31.6409 33.9181 31.8209C33.7223 32.001 33.6124 32.2451 33.6124 32.4997C33.6124 32.7543 33.7223 32.9984 33.9181 33.1785C34.1139 33.3585 34.3794 33.4596 34.6563 33.4596H66.4361L60.7555 38.6832C60.5598 38.8632 60.4498 39.1074 60.4498 39.362C60.4498 39.6166 60.5598 39.8607 60.7555 40.0408C60.9513 40.2208 61.2168 40.3219 61.4937 40.3219C61.7706 40.3219 62.0361 40.2208 62.2319 40.0408L69.6943 33.1782C69.7912 33.0891 69.8681 32.9834 69.9206 32.8669C69.973 32.7505 70 32.6257 70 32.4997C70 32.3737 69.973 32.2489 69.9206 32.1325C69.8681 32.0161 69.7912 31.9103 69.6943 31.8212Z" fill="black"/>
<path d="M25.3584 0.154605C25.2124 0.0677487 25.0451 0.0156557 24.8717 0.00301642C24.6984 -0.00962287 24.5243 0.0175885 24.3652 0.0822L0.619777 9.78716C0.435251 9.86268 0.278496 9.98577 0.168495 10.1415C0.0584937 10.2973 -3.39793e-05 10.4791 1.47999e-08 10.6648V54.3352C-3.39793e-05 54.5209 0.0584937 54.7027 0.168495 54.8584C0.278496 55.0142 0.435251 55.1373 0.619777 55.2128L4.19886 56.6763C4.45199 56.7797 4.73943 56.7864 4.99796 56.695C5.25649 56.6035 5.46492 56.4214 5.5774 56.1886C5.68989 55.9559 5.69721 55.6915 5.59776 55.4538C5.49831 55.2161 5.30023 55.0244 5.0471 54.921L2.0878 53.711V11.2885L23.7454 2.43645V11.7333C23.7454 11.9879 23.8554 12.232 24.0512 12.4121C24.2469 12.5921 24.5125 12.6932 24.7893 12.6932C25.0662 12.6932 25.3317 12.5921 25.5275 12.4121C25.7232 12.232 25.8332 11.9879 25.8332 11.7333V0.959831C25.8332 0.79987 25.7898 0.642434 25.7069 0.501815C25.624 0.361196 25.5042 0.241848 25.3584 0.154605Z" fill="black"/>
<path d="M24.7893 24.6833C24.5125 24.6833 24.2469 24.7844 24.0512 24.9644C23.8554 25.1445 23.7454 25.3886 23.7454 25.6432V62.563L10.257 57.0498C10.0039 56.9464 9.71647 56.9396 9.45795 57.0311C9.19942 57.1225 8.99099 57.3047 8.87851 57.5374C8.76602 57.7702 8.7587 58.0345 8.85815 58.2722C8.9576 58.51 9.15568 58.7016 9.40881 58.805L24.3652 64.9172C24.5242 64.9822 24.6983 65.0096 24.8717 64.997C25.0452 64.9844 25.2125 64.9321 25.3583 64.8449C25.5042 64.7577 25.624 64.6383 25.707 64.4977C25.7899 64.357 25.8333 64.1996 25.8332 64.0396V25.6432C25.8332 25.3886 25.7232 25.1445 25.5275 24.9644C25.3317 24.7844 25.0662 24.6833 24.7893 24.6833Z" fill="black"/>
<path d="M24.7893 15.8154C24.5125 15.8154 24.2469 15.9165 24.0512 16.0965C23.8554 16.2765 23.7454 16.5207 23.7454 16.7753V20.5694C23.7454 20.824 23.8554 21.0681 24.0512 21.2481C24.2469 21.4282 24.5125 21.5293 24.7893 21.5293C25.0662 21.5293 25.3317 21.4282 25.5275 21.2481C25.7232 21.0681 25.8332 20.824 25.8332 20.5694V16.7753C25.8332 16.5207 25.7232 16.2765 25.5275 16.0965C25.3317 15.9165 25.0662 15.8154 24.7893 15.8154Z" fill="black"/>
</svg>
