<svg width="70" height="50" viewBox="0 0 70 50" fill="none" xmlns="http://www.w3.org/2000/svg">
<path d="M3.50002 1.28204H66.5C67.7888 1.28204 68.8334 2.42996 68.8334 3.84615V46.1538C68.8334 47.57 67.7888 48.718 66.5 48.718H3.50002C2.21129 48.718 1.16669 47.57 1.16669 46.1538V3.84615C1.16669 2.42996 2.21129 1.28204 3.50002 1.28204Z" fill="#CDDC39"/>
<path d="M47.8333 43.5898C51.6993 43.5898 54.8333 40.1458 54.8333 35.8975C54.8333 31.6491 51.6993 28.2051 47.8333 28.2051C43.9673 28.2051 40.8333 31.6491 40.8333 35.8975C40.8333 40.1458 43.9673 43.5898 47.8333 43.5898Z" fill="#FF1D25"/>
<path d="M56 43.5898C59.866 43.5898 63 40.1458 63 35.8975C63 31.6491 59.866 28.2051 56 28.2051C52.134 28.2051 49 31.6491 49 35.8975C49 40.1458 52.134 43.5898 56 43.5898Z" fill="white"/>
<path d="M10.5 7.69229H14V12.8205H10.5V7.69229Z" fill="#EBC17D"/>
<path d="M5.83331 12.8205V16.6667C5.83331 17.3747 6.35569 17.9487 6.99998 17.9487H10.5V12.8205H5.83331Z" fill="#C08329"/>
<path d="M10.5 7.69229H6.99998C6.35569 7.69229 5.83331 8.26633 5.83331 8.97434V12.8205H10.5V7.69229Z" fill="#CA974D"/>
<path d="M10.5 12.8205V17.9487H16.3333C16.9776 17.9487 17.5 17.3747 17.5 16.6667V12.8205H10.5Z" fill="#CA974D"/>
<path d="M16.3333 7.69229H14V12.8205H17.5V8.97434C17.5 8.26633 16.9776 7.69229 16.3333 7.69229Z" fill="#C08329"/>
<path d="M66.5 0H3.5C1.56698 0 0 1.72196 0 3.84615V46.1538C0 48.278 1.56698 50 3.5 50H66.5C68.433 50 70 48.278 70 46.1538V3.84615C70 1.72196 68.433 0 66.5 0ZM67.6667 46.1538C67.6667 46.8619 67.1443 47.4359 66.5 47.4359H3.5C2.85571 47.4359 2.33333 46.8619 2.33333 46.1538V3.84615C2.33333 3.13814 2.85571 2.5641 3.5 2.5641H66.5C67.1443 2.5641 67.6667 3.13814 67.6667 3.84615V46.1538Z" fill="black"/>
<path d="M56 26.9231C54.3298 26.922 52.7001 27.4875 51.3334 28.5423C47.6368 25.7024 42.5451 26.6933 39.9608 30.7553C37.3765 34.8173 38.2782 40.4127 41.9746 43.2526C44.7848 45.4116 48.523 45.4116 51.3332 43.2526C55.0298 46.0925 60.1214 45.1016 62.7057 41.0396C65.29 36.9774 64.3884 31.3822 60.6919 28.5423C59.3166 27.4856 57.6783 26.9202 56 26.9231ZM40.8333 35.8975C40.8259 32.3664 43.4248 29.4973 46.6381 29.4891C47.6729 29.4866 48.6895 29.7872 49.5834 30.3603C47.2454 33.6047 47.2454 38.1902 49.5834 41.4346C46.8079 43.214 43.2453 42.184 41.6261 39.134C41.1046 38.1518 40.831 37.0345 40.8333 35.8975ZM56 42.3077C52.7784 42.3077 50.1667 39.4377 50.1667 35.8975C50.1667 32.3572 52.7784 29.4872 56 29.4872C59.2216 29.4872 61.8334 32.3572 61.8334 35.8975C61.8296 39.4359 59.22 42.3035 56 42.3077Z" fill="black"/>
<path d="M5.83331 41.0257H15.1666V43.5898H5.83331V41.0257Z" fill="black"/>
<path d="M17.5 41.0257H28V43.5898H17.5V41.0257Z" fill="black"/>
<path d="M19.8333 32.0513H35V34.6154H19.8333V32.0513Z" fill="black"/>
<path d="M51.3334 21.7949H61.8334V24.359H51.3334V21.7949Z" fill="black"/>
<path d="M36.1666 21.7949H46.6666V24.359H36.1666V21.7949Z" fill="black"/>
<path d="M21 21.7949H31.5V24.359H21V21.7949Z" fill="black"/>
<path d="M5.83331 21.7949H16.3333V24.359H5.83331V21.7949Z" fill="black"/>
<path d="M18.6667 16.6667V8.97438C18.6667 7.55819 17.6221 6.41028 16.3334 6.41028H7.00002C5.71129 6.41028 4.66669 7.55819 4.66669 8.97438V16.6667C4.66669 18.0829 5.71129 19.2308 7.00002 19.2308H16.3334C17.6221 19.2308 18.6667 18.0829 18.6667 16.6667ZM16.3334 11.5385H15.1667V8.97438H16.3334V11.5385ZM11.6667 11.5385V8.97438H12.8334V11.5385H11.6667ZM9.33335 8.97438V11.5385H7.00002V8.97438H9.33335ZM7.00002 14.1026H9.33335V16.6667H7.00002V14.1026ZM11.6667 16.6667V14.1026H16.3334V16.6667H11.6667Z" fill="black"/>
<path d="M50.1667 5.1282H64.1667V7.69231H50.1667V5.1282Z" fill="black"/>
<path d="M54.8333 10.2564H64.1666V12.8205H54.8333V10.2564Z" fill="black"/>
</svg>
