<svg width="29" height="30" viewBox="0 0 29 30" fill="none" xmlns="http://www.w3.org/2000/svg">
<path d="M17.694 14.9991L28.5367 3.78198C28.835 3.4732 28.9995 3.06125 29 2.62198C29 2.18247 28.8354 1.77003 28.5367 1.46174L27.5865 0.479055C27.2878 0.169543 26.8896 3.05176e-05 26.4645 3.05176e-05C26.0401 3.05176e-05 25.6419 0.169543 25.3432 0.479055L14.5005 11.6954L3.6573 0.479055C3.35905 0.169543 2.96059 3.05176e-05 2.53573 3.05176e-05C2.11134 3.05176e-05 1.71289 0.169543 1.41463 0.479055L0.464 1.46174C-0.154667 2.10174 -0.154667 3.14272 0.464 3.78198L11.3069 14.9991L0.464 26.2157C0.165512 26.5249 0.00117886 26.9369 0.00117886 27.3761C0.00117886 27.8154 0.165512 28.2274 0.464 28.5364L1.4144 29.5191C1.71265 29.8283 2.11134 29.9981 2.5355 29.9981C2.96036 29.9981 3.35881 29.8283 3.65706 29.5191L14.5002 18.3025L25.3429 29.5191C25.6417 29.8283 26.0399 29.9981 26.4643 29.9981H26.4647C26.8894 29.9981 27.2876 29.8283 27.5863 29.5191L28.5365 28.5364C28.8347 28.2276 28.9993 27.8154 28.9993 27.3761C28.9993 26.9369 28.8347 26.5249 28.5365 26.2159L17.694 14.9991Z" fill="white"/>
</svg>
