<svg width="120" height="120" viewBox="0 0 120 120" fill="none" xmlns="http://www.w3.org/2000/svg">
<path d="M104.834 37.5366H5.75083C4.54418 37.5375 3.38721 38.0194 2.53398 38.8766C1.68076 39.7338 1.20102 40.8962 1.20013 42.1084V98.0123C1.20102 99.2246 1.68076 100.387 2.53398 101.244C3.38721 102.101 4.54418 102.583 5.75083 102.584H104.834C106.041 102.584 107.199 102.102 108.052 101.245C108.906 100.388 109.385 99.2248 109.385 98.0123V42.1084C109.385 40.8959 108.906 39.7331 108.052 38.8758C107.199 38.0184 106.041 37.5367 104.834 37.5366Z" fill="#546E7A"/>
<path d="M85.3654 62.3634C84.1394 63.0744 82.7487 63.4486 81.3332 63.4485C79.9176 63.4484 78.527 63.074 77.3012 62.3629C76.0753 61.6518 75.0573 60.629 74.3496 59.3974C73.6418 58.1657 73.2692 56.7687 73.2692 55.3465C73.2692 53.9244 73.6418 52.5273 74.3496 51.2957C75.0573 50.064 76.0753 49.0413 77.3012 48.3302C78.527 47.619 79.9176 47.2446 81.3332 47.2445C82.7487 47.2444 84.1394 47.6186 85.3654 48.3296C84.1392 49.0406 83.121 50.0635 82.4131 51.2952C81.7052 52.5269 81.3325 53.9242 81.3325 55.3465C81.3325 56.7688 81.7052 58.1661 82.4131 59.3979C83.121 60.6296 84.1392 61.6524 85.3654 62.3634Z" fill="#FC5D3D"/>
<path d="M89.3976 55.346C89.3984 56.7684 89.0261 58.166 88.3182 59.3978C87.6104 60.6297 86.5919 61.6524 85.3654 62.363C84.1392 61.6519 83.121 60.6291 82.4131 59.3974C81.7052 58.1656 81.3325 56.7684 81.3325 55.346C81.3325 53.9237 81.7052 52.5264 82.4131 51.2947C83.121 50.063 84.1392 49.0402 85.3654 48.3291C86.5919 49.0397 87.6104 50.0624 88.3182 51.2943C89.0261 52.5261 89.3984 53.9236 89.3976 55.346Z" fill="#F0F0F0"/>
<path d="M97.4621 55.346C97.4602 56.7675 97.0865 58.1636 96.3782 59.3942C95.67 60.6248 94.6522 61.6467 93.4269 62.3575C92.2015 63.0682 90.8117 63.4429 89.3968 63.4439C87.9819 63.4448 86.5916 63.0721 85.3653 62.363C86.5914 61.6519 87.6096 60.6291 88.3176 59.3974C89.0255 58.1656 89.3982 56.7684 89.3982 55.346C89.3982 53.9237 89.0255 52.5265 88.3176 51.2947C87.6096 50.063 86.5914 49.0402 85.3653 48.3291C86.5916 47.62 87.9819 47.2473 89.3968 47.2482C90.8117 47.2492 92.2015 47.6239 93.4269 48.3346C94.6522 49.0454 95.67 50.0673 96.3782 51.2979C97.0865 52.5285 97.4602 53.9246 97.4621 55.346Z" fill="white"/>
<path d="M29.4004 47.583H11.815C10.6109 47.583 9.6347 48.5637 9.6347 49.7735V60.9191C9.6347 62.1288 10.6109 63.1095 11.815 63.1095H29.4004C30.6046 63.1095 31.5807 62.1288 31.5807 60.9191V49.7735C31.5807 48.5637 30.6046 47.583 29.4004 47.583Z" fill="white"/>
<path d="M114.254 18.8195H15.1704C14.5731 18.8196 13.9816 18.938 13.4298 19.1678C12.878 19.3977 12.3767 19.7345 11.9546 20.1591C11.5324 20.5837 11.1976 21.0877 10.9694 21.6423C10.7412 22.1968 10.624 22.7912 10.6245 23.3913V37.5361H104.831C105.428 37.5356 106.021 37.6535 106.573 37.8831C107.126 38.1126 107.628 38.4493 108.051 38.8739C108.474 39.2984 108.81 39.8026 109.039 40.3575C109.268 40.9124 109.386 41.5072 109.386 42.1079V83.8622H114.254C115.459 83.8622 116.615 83.3811 117.468 82.5246C118.32 81.6681 118.799 80.5065 118.799 79.2952V23.3913C118.8 22.7911 118.683 22.1966 118.455 21.6418C118.227 21.087 117.892 20.5829 117.47 20.1582C117.048 19.7336 116.547 19.3968 115.995 19.167C115.443 18.9373 114.851 18.8192 114.254 18.8195Z" fill="#AFAFAF"/>
<path d="M118.798 29.5503V42.9234H109.385V42.1084C109.384 40.8959 108.905 39.7331 108.052 38.8758C107.198 38.0184 106.041 37.5367 104.834 37.5366H10.623V29.5503H118.798Z" fill="#4C4945"/>
<path d="M117.614 9.26006C115.846 8.67315 114.02 8.16002 112.995 3.72321C112.051 7.8099 110.538 8.54198 108.376 9.26006C111.902 10.4305 112.435 12.3692 112.995 14.7964C113.961 10.6123 115.56 9.9415 117.614 9.26006Z" fill="white"/>
<path d="M102.081 6.7272C100.313 6.14028 98.4869 5.62716 97.4621 1.19034C96.5179 5.27703 95.0048 6.00911 92.8427 6.7272C96.3695 7.89765 96.9014 9.83634 97.4621 12.2636C98.4284 8.07946 100.026 7.40912 102.081 6.7272Z" fill="white"/>
<path d="M16.815 113.271C15.0471 112.684 13.221 112.171 12.1962 107.734C11.2515 111.82 9.7389 112.553 7.57684 113.271C11.1031 114.442 11.6355 116.38 12.1962 118.807C13.162 114.623 14.7605 113.953 16.815 113.271Z" fill="white"/>
<path d="M103.603 98.24H80.7229C80.4047 98.24 80.0994 98.1129 79.8744 97.8868C79.6493 97.6607 79.5229 97.3541 79.5229 97.0343C79.5229 96.7145 79.6493 96.4079 79.8744 96.1818C80.0994 95.9557 80.4047 95.8286 80.7229 95.8286H102.403V44.7884C102.403 44.4686 102.529 44.1619 102.755 43.9358C102.98 43.7097 103.285 43.5827 103.603 43.5827C103.921 43.5827 104.227 43.7097 104.452 43.9358C104.677 44.1619 104.803 44.4686 104.803 44.7884V97.0343C104.803 97.3541 104.677 97.6607 104.452 97.8868C104.227 98.1129 103.921 98.24 103.603 98.24ZM75.9226 98.24H75.6826C75.3643 98.24 75.0591 98.1129 74.834 97.8868C74.609 97.6607 74.4825 97.3541 74.4825 97.0343C74.4825 96.7145 74.609 96.4079 74.834 96.1818C75.0591 95.9557 75.3643 95.8286 75.6826 95.8286H75.9226C76.2409 95.8286 76.5462 95.9557 76.7712 96.1818C76.9963 96.4079 77.1227 96.7145 77.1227 97.0343C77.1227 97.3541 76.9963 97.6607 76.7712 97.8868C76.5462 98.1129 76.2409 98.24 75.9226 98.24Z" fill="#F4F4F4"/>
<path d="M70.721 44.3837H69.1585C68.8402 44.3837 68.5349 44.2567 68.3099 44.0306C68.0848 43.8045 67.9584 43.4978 67.9584 43.178C67.9584 42.8583 68.0848 42.5516 68.3099 42.3255C68.5349 42.0994 68.8402 41.9724 69.1585 41.9724H70.721C71.0392 41.9724 71.3445 42.0994 71.5695 42.3255C71.7946 42.5516 71.921 42.8583 71.921 43.178C71.921 43.4978 71.7946 43.8045 71.5695 44.0306C71.3445 44.2567 71.0392 44.3837 70.721 44.3837ZM64.3581 44.3837H9.63465C9.31637 44.3837 9.01112 44.2567 8.78606 44.0306C8.56101 43.8045 8.43457 43.4978 8.43457 43.178C8.43457 42.8583 8.56101 42.5516 8.78606 42.3255C9.01112 42.0994 9.31637 41.9724 9.63465 41.9724H64.3581C64.6764 41.9724 64.9817 42.0994 65.2067 42.3255C65.4318 42.5516 65.5582 42.8583 65.5582 43.178C65.5582 43.4978 65.4318 43.8045 65.2067 44.0306C64.9817 44.2567 64.6764 44.3837 64.3581 44.3837Z" fill="#F4F4F4"/>
<path d="M111.545 25.3903H109.635C109.316 25.3903 109.011 25.2633 108.786 25.0372C108.561 24.8111 108.435 24.5044 108.435 24.1846C108.435 23.8649 108.561 23.5582 108.786 23.3321C109.011 23.106 109.316 22.979 109.635 22.979H111.547C111.865 22.979 112.17 23.106 112.395 23.3321C112.62 23.5582 112.747 23.8649 112.747 24.1846C112.747 24.5044 112.62 24.8111 112.395 25.0372C112.17 25.2633 111.865 25.3903 111.547 25.3903H111.545ZM104.833 25.3903H18.4289C18.1106 25.3903 17.8054 25.2633 17.5803 25.0372C17.3553 24.8111 17.2288 24.5044 17.2288 24.1846C17.2288 23.8649 17.3553 23.5582 17.5803 23.3321C17.8054 23.106 18.1106 22.979 18.4289 22.979H104.834C105.153 22.979 105.458 23.106 105.683 23.3321C105.908 23.5582 106.035 23.8649 106.035 24.1846C106.035 24.5044 105.908 24.8111 105.683 25.0372C105.458 25.2633 105.153 25.3903 104.834 25.3903H104.833Z" fill="#EFEFEF"/>
<path d="M111.839 15.066C111.899 15.3284 112.047 15.5623 112.257 15.7298C112.467 15.8973 112.727 15.9885 112.995 15.9885C113.263 15.9885 113.524 15.8973 113.734 15.7298C113.944 15.5623 114.091 15.3284 114.152 15.066C115.002 11.383 116.254 10.9668 117.987 10.3924C118.224 10.3134 118.43 10.1614 118.576 9.95794C118.722 9.7545 118.801 9.50998 118.801 9.25909C118.801 9.0082 118.722 8.76368 118.576 8.56024C118.43 8.35681 118.224 8.20479 117.987 8.12577C116.322 7.57503 115.022 7.21864 114.151 3.45217C114.09 3.19038 113.942 2.95711 113.732 2.79016C113.522 2.62321 113.263 2.53237 112.995 2.53237C112.727 2.53237 112.467 2.62321 112.257 2.79016C112.048 2.95711 111.9 3.19038 111.839 3.45217C110.987 7.13521 109.8 7.52921 108.004 8.12626C107.766 8.20503 107.56 8.35695 107.413 8.56042C107.267 8.76388 107.188 9.00853 107.188 9.25957C107.188 9.51061 107.267 9.75526 107.413 9.95873C107.56 10.1622 107.766 10.3141 108.004 10.3929C110.988 11.383 111.326 12.8481 111.839 15.066ZM113 7.20513C113.429 8.01924 114.036 8.72485 114.776 9.26874C114.047 9.7896 113.447 10.4706 113.02 11.26C112.553 10.4716 111.918 9.79711 111.161 9.28513C111.929 8.74908 112.56 8.03671 113 7.20706V7.20513Z" fill="black"/>
<path d="M92.4702 7.86004C95.4551 8.8506 95.793 10.3157 96.3052 12.5332C96.366 12.7955 96.5135 13.0295 96.7235 13.197C96.9335 13.3645 97.1937 13.4556 97.4618 13.4556C97.73 13.4556 97.9902 13.3645 98.2002 13.197C98.4102 13.0295 98.5577 12.7955 98.6185 12.5332C99.4691 8.8506 100.721 8.43393 102.453 7.86004C102.69 7.78102 102.897 7.629 103.043 7.42557C103.189 7.22213 103.268 6.97761 103.268 6.72672C103.268 6.47583 103.189 6.23131 103.043 6.02787C102.897 5.82443 102.69 5.67242 102.453 5.5934C100.789 5.04266 99.4888 4.68627 98.6185 0.919794C98.5571 0.658009 98.4094 0.424735 98.1996 0.257786C97.9897 0.0908371 97.7298 0 97.4621 0C97.1944 0 96.9345 0.0908371 96.7246 0.257786C96.5147 0.424735 96.3671 0.658009 96.3057 0.919794C95.4541 4.60283 94.267 4.99732 92.4702 5.59388C92.2334 5.67301 92.0274 5.82504 91.8813 6.02842C91.7353 6.2318 91.6567 6.4762 91.6567 6.72696C91.6567 6.97772 91.7353 7.22212 91.8813 7.4255C92.0274 7.62888 92.2334 7.78091 92.4702 7.86004ZM97.4664 4.6771C97.8954 5.4911 98.5027 6.19668 99.2425 6.7407C98.5139 7.26136 97.9131 7.94225 97.4861 8.73149C97.0195 7.94323 96.3847 7.26874 95.6274 6.75662C96.3966 6.21955 97.027 5.5058 97.4664 4.67469V4.6771Z" fill="black"/>
<path d="M11.0393 119.078C11.1001 119.34 11.2475 119.574 11.4575 119.741C11.6675 119.909 11.9278 120 12.1959 120C12.464 120 12.7243 119.909 12.9343 119.741C13.1443 119.574 13.2917 119.34 13.3525 119.078C14.2027 115.394 15.4551 114.978 17.1875 114.404C17.4245 114.325 17.6308 114.173 17.7769 113.969C17.9231 113.766 18.0017 113.522 18.0017 113.271C18.0017 113.02 17.9231 112.775 17.7769 112.572C17.6308 112.368 17.4245 112.216 17.1875 112.137C15.5228 111.587 14.2228 111.23 13.3525 107.463C13.2909 107.202 13.1432 106.968 12.9333 106.802C12.7234 106.635 12.4636 106.544 12.1959 106.544C11.9283 106.544 11.6684 106.635 11.4585 106.802C11.2486 106.968 11.1009 107.202 11.0393 107.463C10.1882 111.147 9.00106 111.541 7.20431 112.137C6.96728 112.216 6.76105 112.368 6.6149 112.572C6.46874 112.775 6.39008 113.02 6.39008 113.271C6.39008 113.522 6.46874 113.766 6.6149 113.969C6.76105 114.173 6.96728 114.325 7.20431 114.404C10.1887 115.394 10.5271 116.859 11.0393 119.078ZM12.2005 111.217C12.6296 112.031 13.2369 112.736 13.9766 113.28C13.2482 113.801 12.6476 114.482 12.2206 115.271C11.7541 114.483 11.1191 113.808 10.3615 113.297C11.1303 112.76 11.7608 112.047 12.2005 111.217Z" fill="black"/>
<path d="M9.63422 84.5668C9.31594 84.5668 9.0107 84.6938 8.78564 84.9199C8.56058 85.1461 8.43414 85.4527 8.43414 85.7725C8.43414 86.0922 8.56058 86.3989 8.78564 86.625C9.0107 86.8511 9.31594 86.9781 9.63422 86.9781H14.0025C14.3208 86.9781 14.626 86.8511 14.8511 86.625C15.0761 86.3989 15.2026 86.0922 15.2026 85.7725C15.2026 85.4527 15.0761 85.1461 14.8511 84.9199C14.626 84.6938 14.3208 84.5668 14.0025 84.5668H13.0184V79.1896C13.018 78.9842 12.9654 78.7823 12.8655 78.6031C12.7656 78.4239 12.6219 78.2733 12.4478 78.1655C12.2737 78.0578 12.0752 77.9965 11.8709 77.9875C11.6667 77.9786 11.4635 78.0221 11.2807 78.1141L9.22619 79.151C8.94178 79.2938 8.72537 79.5441 8.62448 79.847C8.52359 80.1499 8.54646 80.4806 8.68808 80.7666C8.83589 81.0482 9.08621 81.2615 9.38681 81.3621C9.68741 81.4628 10.0151 81.4429 10.3015 81.3067L10.6183 81.1476V84.5668H9.63422Z" fill="black"/>
<path d="M25.6433 83.5782V81.3839C25.6433 80.4828 25.287 79.6186 24.6528 78.9815C24.0185 78.3443 23.1584 77.9863 22.2615 77.9863C21.3645 77.9863 20.5044 78.3443 19.8701 78.9815C19.2359 79.6186 18.8796 80.4828 18.8796 81.3839V83.5782C18.8796 84.4793 19.2359 85.3434 19.8701 85.9806C20.5044 86.6178 21.3645 86.9757 22.2615 86.9757C23.1584 86.9757 24.0185 86.6178 24.6528 85.9806C25.287 85.3434 25.6433 84.4793 25.6433 83.5782ZM21.2798 83.5782V81.3839C21.2798 81.1223 21.3832 80.8715 21.5673 80.6865C21.7514 80.5016 22.0011 80.3977 22.2615 80.3977C22.5218 80.3977 22.7715 80.5016 22.9556 80.6865C23.1397 80.8715 23.2431 81.1223 23.2431 81.3839V83.5782C23.2431 83.8397 23.1397 84.0906 22.9556 84.2755C22.7715 84.4605 22.5218 84.5644 22.2615 84.5644C22.0011 84.5644 21.7514 84.4605 21.5673 84.2755C21.3832 84.0906 21.2798 83.8397 21.2798 83.5782Z" fill="black"/>
<path d="M32.7044 77.9839C31.8081 77.9864 30.9492 78.3455 30.3158 78.9827C29.6824 79.62 29.3261 80.4833 29.325 81.3839V83.5782C29.3197 84.0277 29.4032 84.4739 29.5708 84.8907C29.7383 85.3076 29.9865 85.6869 30.3011 86.0067C30.6156 86.3265 30.9902 86.5804 31.4031 86.7537C31.816 86.927 32.2591 87.0162 32.7066 87.0162C33.1541 87.0162 33.5971 86.927 34.0101 86.7537C34.423 86.5804 34.7976 86.3265 35.1121 86.0067C35.4266 85.6869 35.6749 85.3076 35.8424 84.8907C36.01 84.4739 36.0935 84.0277 36.0882 83.5782V81.3839C36.0869 80.4826 35.73 79.6187 35.0957 78.9813C34.4614 78.344 33.6015 77.9853 32.7044 77.9839ZM33.688 83.5782C33.688 83.708 33.6626 83.8366 33.6131 83.9565C33.5636 84.0765 33.4912 84.1855 33.3998 84.2773C33.3084 84.3691 33.1999 84.4419 33.0805 84.4916C32.9611 84.5412 32.8332 84.5668 32.7039 84.5668C32.5747 84.5668 32.4468 84.5412 32.3274 84.4916C32.208 84.4419 32.0995 84.3691 32.0081 84.2773C31.9167 84.1855 31.8442 84.0765 31.7948 83.9565C31.7453 83.8366 31.7199 83.708 31.7199 83.5782V81.3839C31.7199 81.2541 31.7453 81.1255 31.7948 81.0056C31.8442 80.8856 31.9167 80.7766 32.0081 80.6848C32.0995 80.593 32.208 80.5202 32.3274 80.4705C32.4468 80.4208 32.5747 80.3952 32.7039 80.3952C32.8332 80.3952 32.9611 80.4208 33.0805 80.4705C33.1999 80.5202 33.3084 80.593 33.3998 80.6848C33.4912 80.7766 33.5636 80.8856 33.6131 81.0056C33.6626 81.1255 33.688 81.2541 33.688 81.3839V83.5782Z" fill="black"/>
<path d="M40.9659 84.5668C40.6476 84.5668 40.3424 84.6938 40.1173 84.9199C39.8922 85.1461 39.7658 85.4527 39.7658 85.7725C39.7658 86.0922 39.8922 86.3989 40.1173 86.625C40.3424 86.8511 40.6476 86.9781 40.9659 86.9781H45.3342C45.6524 86.9781 45.9577 86.8511 46.1827 86.625C46.4078 86.3989 46.5342 86.0922 46.5342 85.7725C46.5342 85.4527 46.4078 85.1461 46.1827 84.9199C45.9577 84.6938 45.6524 84.5668 45.3342 84.5668H44.3506V79.1896C44.3501 78.9843 44.2975 78.7825 44.1976 78.6033C44.0978 78.4241 43.9541 78.2736 43.7801 78.1658C43.6061 78.0581 43.4076 77.9968 43.2034 77.9878C42.9992 77.9787 42.7961 78.0222 42.6134 78.1141L40.5588 79.151C40.4182 79.2219 40.2928 79.3199 40.1899 79.4395C40.087 79.559 40.0086 79.6978 39.9591 79.8478C39.9096 79.9979 39.89 80.1563 39.9015 80.3139C39.913 80.4716 39.9553 80.6254 40.026 80.7666C40.172 81.0485 40.4216 81.2621 40.7219 81.3621C41.0222 81.462 41.3494 81.4404 41.6341 81.3019L41.9504 81.1428V84.5668H40.9659Z" fill="black"/>
<path d="M56.9796 83.5782V81.3839C56.9647 80.4921 56.6015 79.6419 55.9685 79.0165C55.3355 78.3912 54.4832 78.0407 53.5954 78.0407C52.7076 78.0407 51.8553 78.3912 51.2223 79.0165C50.5893 79.6419 50.2261 80.4921 50.2112 81.3839V83.5782C50.2261 84.47 50.5893 85.3202 51.2223 85.9455C51.8553 86.5709 52.7076 86.9213 53.5954 86.9213C54.4832 86.9213 55.3355 86.5709 55.9685 85.9455C56.6015 85.3202 56.9647 84.47 56.9796 83.5782ZM52.6113 83.5782V81.3839C52.6193 81.127 52.7265 80.8834 52.9102 80.7045C53.0939 80.5257 53.3396 80.4256 53.5954 80.4256C53.8512 80.4256 54.0969 80.5257 54.2806 80.7045C54.4643 80.8834 54.5715 81.127 54.5795 81.3839V83.5782C54.5715 83.835 54.4643 84.0787 54.2806 84.2575C54.0969 84.4364 53.8512 84.5364 53.5954 84.5364C53.3396 84.5364 53.0939 84.4364 52.9102 84.2575C52.7265 84.0787 52.6193 83.835 52.6113 83.5782Z" fill="black"/>
<path d="M60.6567 85.7725C60.6576 86.092 60.7843 86.3981 61.0092 86.624C61.2341 86.8499 61.5388 86.9772 61.8568 86.9781H66.2203C66.5386 86.9781 66.8438 86.8511 67.0689 86.625C67.2939 86.3989 67.4204 86.0922 67.4204 85.7725C67.4204 85.4527 67.2939 85.1461 67.0689 84.9199C66.8438 84.6938 66.5386 84.5668 66.2203 84.5668H65.2362V79.1896C65.2358 78.9842 65.1832 78.7823 65.0833 78.6031C64.9834 78.4239 64.8397 78.2733 64.6656 78.1655C64.4915 78.0578 64.2929 77.9965 64.0887 77.9875C63.8844 77.9786 63.6813 78.0221 63.4985 78.1141L61.444 79.151C61.3032 79.2217 61.1776 79.3196 61.0746 79.4391C60.9715 79.5586 60.8929 79.6974 60.8434 79.8475C60.7938 79.9976 60.7743 80.1561 60.7858 80.3138C60.7974 80.4715 60.8398 80.6254 60.9107 80.7666C61.0579 81.0487 61.3085 81.2623 61.6096 81.3622C61.9106 81.4621 62.2386 81.4404 62.5241 81.3019L62.8361 81.1428L62.8394 84.5668H61.8568C61.5385 84.5668 61.2333 84.6938 61.0082 84.9199C60.7832 85.1461 60.6567 85.4527 60.6567 85.7725Z" fill="black"/>
<path d="M45.133 93.8759C45.133 94.1957 45.2594 94.5024 45.4845 94.7285C45.7095 94.9546 46.0148 95.0816 46.3331 95.0816H67.2091C67.5274 95.0816 67.8327 94.9546 68.0577 94.7285C68.2828 94.5024 68.4092 94.1957 68.4092 93.8759C68.4092 93.5562 68.2828 93.2495 68.0577 93.0234C67.8327 92.7973 67.5274 92.6703 67.2091 92.6703H46.3331C46.0148 92.6703 45.7095 92.7973 45.4845 93.0234C45.2594 93.2495 45.133 93.5562 45.133 93.8759Z" fill="black"/>
<path d="M10.0609 92.6703C9.74264 92.6703 9.43739 92.7973 9.21233 93.0234C8.98728 93.2495 8.86084 93.5562 8.86084 93.8759C8.86084 94.1957 8.98728 94.5024 9.21233 94.7285C9.43739 94.9546 9.74264 95.0816 10.0609 95.0816H39.1469C39.4652 95.0816 39.7705 94.9546 39.9955 94.7285C40.2206 94.5024 40.347 94.1957 40.347 93.8759C40.347 93.5562 40.2206 93.2495 39.9955 93.0234C39.7705 92.7973 39.4652 92.6703 39.1469 92.6703H10.0609Z" fill="black"/>
<path d="M75.6816 84.6681C75.3633 84.6681 75.0581 84.7951 74.833 85.0212C74.6079 85.2473 74.4815 85.554 74.4815 85.8737C74.4815 86.1935 74.6079 86.5002 74.833 86.7263C75.0581 86.9524 75.3633 87.0794 75.6816 87.0794H81.3507C81.669 87.0794 81.9743 86.9524 82.1993 86.7263C82.4244 86.5002 82.5508 86.1935 82.5508 85.8737C82.5508 85.554 82.4244 85.2473 82.1993 85.0212C81.9743 84.7951 81.669 84.6681 81.3507 84.6681H75.6816Z" fill="black"/>
<path d="M91.7963 84.6729C91.6326 84.6625 91.4686 84.6859 91.3143 84.7417C91.16 84.7974 91.0187 84.8844 90.8991 84.9971C90.7795 85.1099 90.6842 85.246 90.6191 85.3972C90.554 85.5484 90.5204 85.7114 90.5204 85.8762C90.5204 86.0409 90.554 86.2039 90.6191 86.3551C90.6842 86.5063 90.7795 86.6425 90.8991 86.7552C91.0187 86.868 91.16 86.9549 91.3143 87.0107C91.4686 87.0664 91.6326 87.0898 91.7963 87.0794H97.4607C97.6243 87.0898 97.7884 87.0664 97.9427 87.0107C98.097 86.9549 98.2383 86.868 98.3578 86.7552C98.4774 86.6425 98.5727 86.5063 98.6378 86.3551C98.703 86.2039 98.7366 86.0409 98.7366 85.8762C98.7366 85.7114 98.703 85.5484 98.6378 85.3972C98.5727 85.246 98.4774 85.1099 98.3578 84.9971C98.2383 84.8844 98.097 84.7974 97.9427 84.7417C97.7884 84.6859 97.6243 84.6625 97.4607 84.6729H91.7963Z" fill="black"/>
<path d="M86.996 78.2202L84.8262 85.5313C84.7428 85.8354 84.7812 86.1601 84.9333 86.436C85.0854 86.7119 85.339 86.917 85.6398 87.0072C85.9406 87.0974 86.2646 87.0656 86.5424 86.9187C86.8201 86.7717 87.0295 86.5212 87.1256 86.221L89.2953 78.905C89.3856 78.5994 89.3514 78.2702 89.2001 77.9898C89.0489 77.7095 88.7931 77.5009 88.4889 77.41C88.184 77.3241 87.8579 77.3606 87.5793 77.5118C87.3007 77.663 87.0916 77.917 86.996 78.2202Z" fill="black"/>
<path d="M9.42444 23.3913V36.3309H5.75077C4.22635 36.3334 2.76509 36.943 1.68717 38.0259C0.609237 39.1088 0.00253859 40.5769 0 42.1084V51.1267C0 51.4465 0.126436 51.7531 0.351494 51.9792C0.576552 52.2053 0.881797 52.3324 1.20008 52.3324C1.51836 52.3324 1.8236 52.2053 2.04866 51.9792C2.27372 51.7531 2.40015 51.4465 2.40015 51.1267V42.1084C2.40332 41.2166 2.75734 40.3623 3.38502 39.7317C4.0127 39.1011 4.8631 38.7454 5.75077 38.7422H104.834C105.722 38.7461 106.572 39.102 107.199 39.7325C107.827 40.3629 108.181 41.2168 108.185 42.1084V98.0123C108.183 98.9044 107.829 99.7592 107.201 100.39C106.573 101.021 105.722 101.376 104.834 101.378H5.75077C4.8626 101.377 4.01124 101.022 3.38321 100.391C2.75518 99.7599 2.40168 98.9046 2.40015 98.0123V60.772C2.40015 60.4522 2.27372 60.1455 2.04866 59.9194C1.8236 59.6933 1.51836 59.5663 1.20008 59.5663C0.881797 59.5663 0.576552 59.6933 0.351494 59.9194C0.126436 60.1455 0 60.4522 0 60.772V98.0123C0.00253859 99.5438 0.609237 101.012 1.68717 102.095C2.76509 103.178 4.22635 103.787 5.75077 103.79H104.834C106.359 103.787 107.82 103.178 108.898 102.095C109.976 101.012 110.583 99.5439 110.586 98.0123V85.0679H114.254C115.777 85.0662 117.238 84.4575 118.315 83.3753C119.392 82.293 119.998 80.8257 120 79.2952V23.3913C119.999 21.8602 119.393 20.392 118.316 19.3088C117.239 18.2257 115.778 17.6161 114.254 17.6138H15.1699C13.646 17.6162 12.1852 18.2259 11.1081 19.309C10.0309 20.3921 9.42546 21.8602 9.42444 23.3913ZM117.599 79.2952C117.598 80.1864 117.245 81.0408 116.618 81.6709C115.991 82.3011 115.14 82.6555 114.253 82.6566H110.586V44.1286H117.599V79.2952ZM117.599 41.7173H110.573C110.468 40.2576 109.818 38.8917 108.753 37.8928C107.688 36.894 106.287 36.336 104.831 36.3304H11.8246V30.7555H117.599V41.7173ZM117.599 23.3913V28.3441H11.8246V23.3913C11.825 22.4996 12.1774 21.6444 12.8045 21.0133C13.4317 20.3823 14.2823 20.0269 15.1699 20.0251H114.253C115.141 20.0268 115.992 20.3821 116.619 21.0132C117.246 21.6442 117.599 22.4995 117.599 23.3913Z" fill="black"/>
<path d="M1.20008 57.155C1.86286 57.155 2.40015 56.6152 2.40015 55.9493C2.40015 55.2835 1.86286 54.7437 1.20008 54.7437C0.537293 54.7437 0 55.2835 0 55.9493C0 56.6152 0.537293 57.155 1.20008 57.155Z" fill="black"/>
<path d="M57.6704 61.9053H43.1505C42.9868 61.8949 42.8227 61.9183 42.6684 61.974C42.5141 62.0298 42.3728 62.1167 42.2533 62.2295C42.1337 62.3422 42.0384 62.4784 41.9733 62.6296C41.9081 62.7808 41.8745 62.9438 41.8745 63.1085C41.8745 63.2733 41.9081 63.4363 41.9733 63.5875C42.0384 63.7387 42.1337 63.8748 42.2533 63.9876C42.3728 64.1004 42.5141 64.1873 42.6684 64.243C42.8227 64.2988 42.9868 64.3222 43.1505 64.3118H57.6714C57.835 64.3222 57.9991 64.2988 58.1534 64.243C58.3077 64.1873 58.449 64.1004 58.5686 63.9876C58.6881 63.8748 58.7834 63.7387 58.8486 63.5875C58.9137 63.4363 58.9473 63.2733 58.9473 63.1085C58.9473 62.9438 58.9137 62.7808 58.8486 62.6296C58.7834 62.4784 58.6881 62.3422 58.5686 62.2295C58.449 62.1167 58.3077 62.0298 58.1534 61.974C57.9991 61.9183 57.835 61.8949 57.6714 61.9053H57.6704Z" fill="black"/>
<path d="M29.4009 46.3769H11.8145C10.9183 46.3779 10.0591 46.7361 9.42547 47.3727C8.79183 48.0094 8.43546 48.8726 8.43457 49.773V60.919C8.43546 61.8193 8.79184 62.6825 9.4255 63.3191C10.0592 63.9557 10.9183 64.3137 11.8145 64.3146H29.4009C30.297 64.3137 31.1562 63.9557 31.7898 63.3191C32.4235 62.6825 32.7799 61.8193 32.7808 60.919V49.773C32.7799 48.8726 32.4235 48.0094 31.7899 47.3727C31.1562 46.7361 30.297 46.3779 29.4009 46.3769ZM10.8347 49.773C10.835 49.512 10.9383 49.2617 11.1219 49.0771C11.3056 48.8925 11.5547 48.7886 11.8145 48.7882H14.6308L16.4549 51.8829H10.8347V49.773ZM14.6308 61.9033H11.8145C11.5547 61.9029 11.3058 61.7991 11.1221 61.6146C10.9384 61.4301 10.8351 61.18 10.8347 60.919V58.8087H16.4549L14.6308 61.9033ZM17.2287 56.3973H10.8347V54.2942H17.2287V56.3973ZM21.7564 58.4426L23.7965 61.9033H17.4207L19.4609 58.4426C19.5704 58.2572 19.6284 58.0457 19.6289 57.8301V52.8628C19.629 52.6467 19.5713 52.4345 19.4618 52.2484L17.4217 48.7872H23.7965L21.7564 52.2484C21.6467 52.4344 21.5889 52.6466 21.5889 52.8628V57.8301C21.5889 58.0455 21.6462 58.257 21.7549 58.4426H21.7564ZM30.3816 60.919C30.3812 61.18 30.2779 61.4301 30.0942 61.6146C29.9105 61.7991 29.6616 61.9029 29.4018 61.9033H26.5845L24.7604 58.8087H30.3816V60.919ZM30.3816 56.3973H23.9876V54.2942H30.3816V56.3973ZM30.3816 51.8829H24.7604L26.5845 48.7882H29.4009C29.6607 48.7886 29.9097 48.8925 30.0934 49.0771C30.2771 49.2617 30.3804 49.512 30.3806 49.773L30.3816 51.8829Z" fill="black"/>
<path d="M85.3648 46.9677C83.9524 46.2811 82.3896 45.9661 80.8229 46.0523C79.2562 46.1385 77.737 46.623 76.4077 47.4604C75.0784 48.2978 73.9825 49.4606 73.2229 50.8399C72.4633 52.2192 72.0648 53.7697 72.0648 55.346C72.0648 56.9224 72.4633 58.4729 73.2229 59.8521C73.9825 61.2314 75.0784 62.3943 76.4077 63.2317C77.737 64.0691 79.2562 64.5536 80.8229 64.6398C82.3896 64.726 83.9524 64.411 85.3648 63.7244C86.7772 64.411 88.34 64.726 89.9066 64.6398C91.4733 64.5536 92.9925 64.0691 94.3219 63.2317C95.6512 62.3943 96.747 61.2314 97.5066 59.8521C98.2662 58.4729 98.6647 56.9224 98.6647 55.346C98.6647 53.7697 98.2662 52.2192 97.5066 50.8399C96.747 49.4606 95.6512 48.2978 94.3219 47.4604C92.9925 46.623 91.4733 46.1385 89.9066 46.0523C88.34 45.9661 86.7772 46.2811 85.3648 46.9677ZM74.4681 55.346C74.4694 54.3011 74.7068 53.27 75.1624 52.3307C75.618 51.3913 76.2799 50.5681 77.0982 49.9231C77.9166 49.2781 78.87 48.8281 79.8866 48.6071C80.9032 48.3862 81.9565 48.3999 82.967 48.6474C82.0704 49.515 81.3572 50.5554 80.8701 51.7064C80.383 52.8573 80.1319 54.0951 80.1319 55.3458C80.1319 56.5965 80.383 57.8343 80.8701 58.9852C81.3572 60.1361 82.0704 61.1765 82.967 62.0442C81.9565 62.2917 80.9033 62.3054 79.8868 62.0845C78.8702 61.8635 77.9169 61.4136 77.0986 60.7687C76.2803 60.1237 75.6184 59.3006 75.1628 58.3612C74.7072 57.4219 74.4699 56.3909 74.4686 55.346H74.4681ZM85.3648 60.9224C84.4876 60.2839 83.7735 59.4457 83.2811 58.4764C82.7887 57.507 82.532 56.4343 82.532 55.346C82.532 54.2578 82.7887 53.185 83.2811 52.2157C83.7735 51.2464 84.4876 50.4081 85.3648 49.7696C86.2417 50.4083 86.9555 51.2467 87.4477 52.2159C87.9399 53.1852 88.1965 54.2579 88.1965 55.346C88.1965 56.4342 87.9399 57.5068 87.4477 58.4761C86.9555 59.4454 86.2417 60.2838 85.3648 60.9224ZM87.7621 62.0447C88.6585 61.1769 89.3715 60.1364 89.8585 58.9854C90.3456 57.8345 90.5966 56.5967 90.5966 55.346C90.5966 54.0954 90.3456 52.8576 89.8585 51.7066C89.3715 50.5557 88.6585 49.5152 87.7621 48.6474C88.7725 48.3989 89.826 48.3844 90.8429 48.605C91.8598 48.8256 92.8134 49.2756 93.6318 49.9208C94.4502 50.566 95.1119 51.3897 95.567 52.3295C96.022 53.2694 96.2584 54.3009 96.2584 55.346C96.2584 56.3912 96.022 57.4227 95.567 58.3625C95.1119 59.3024 94.4502 60.1261 93.6318 60.7713C92.8134 61.4165 91.8598 61.8664 90.8429 62.087C89.826 62.3076 88.7725 62.2931 87.7621 62.0447Z" fill="black"/>
</svg>
