<svg width="101" height="81" viewBox="0 0 101 81" fill="none" xmlns="http://www.w3.org/2000/svg">
<path d="M90.5888 0.0659618L9.40869 0.634995C6.91434 0.655425 4.52953 1.60087 2.7773 3.26398C1.02508 4.92708 0.0485073 7.17208 0.0617202 9.50661L0.499021 71.8933C0.518535 74.2278 1.52649 76.4589 3.30185 78.0973C5.07721 79.7356 7.47504 80.6476 9.96944 80.633L91.1496 80.064C93.644 80.0436 96.0287 79.0981 97.781 77.435C99.5332 75.7719 100.51 73.5269 100.497 71.1924L100.059 8.80567C100.04 6.47119 99.0318 4.2401 97.2564 2.60172C95.4811 0.963341 93.0832 0.0514223 90.5888 0.0659618ZM66.252 58.3123L66.3602 73.7435L34.6678 73.9656L34.5596 58.5289L66.252 58.3123ZM7.2943 52.2368L7.13187 29.064L93.264 28.4603L93.4264 51.6331L7.2943 52.2368ZM34.3062 22.3849L34.198 6.94993L65.8905 6.72779L65.9987 22.1627L34.3062 22.3849ZM93.1265 8.85427L93.2185 21.9719L72.9314 22.1141L72.8232 6.67919L90.6343 6.55434C91.2907 6.55072 91.9216 6.79076 92.3887 7.22187C92.8559 7.65298 93.1212 8.23999 93.1265 8.85427ZM9.45417 7.12338L27.2653 6.99853L27.3735 22.4335L7.08639 22.5757L6.99444 9.45801C6.99066 8.84358 7.24756 8.25263 7.70873 7.8149C8.16991 7.37718 8.79767 7.12847 9.45417 7.12338ZM7.4317 71.8392L7.33974 58.7197L27.6269 58.5774L27.7351 74.0142L9.92392 74.1391C9.26828 74.1437 8.63769 73.9047 8.17049 73.4746C7.70329 73.0445 7.43762 72.4583 7.43174 71.8447L7.4317 71.8392ZM91.1041 73.5701L73.2929 73.6949L73.1847 58.2581L93.4718 58.1159L93.5638 71.241C93.566 71.8545 93.3084 72.444 92.8474 72.8805C92.3864 73.317 91.7596 73.565 91.1041 73.5701Z" fill="#546E7A"/>
</svg>
