<svg width="120" height="100" viewBox="0 0 120 100" fill="none" xmlns="http://www.w3.org/2000/svg">
<path d="M31.8183 48.9333C31.3034 40.7088 25.9301 34.0043 18.6668 34.0043C11.4035 34.0043 6.03023 40.7088 5.51531 48.9333C5.20851 53.8366 5.51531 61.7295 3.63656 65.9949C3.63656 65.9949 5.51531 70.2602 12.4441 72.3987L24.9274 72.3929C31.8183 70.2602 33.697 65.9949 33.697 65.9949C31.8183 61.7295 32.1251 53.8366 31.8183 48.9333Z" fill="#694B4B"/>
<path d="M16.788 48.9333C9.54773 44.8238 11.0379 36.7723 16.1962 34.2805C10.2122 35.6059 5.96976 41.6735 5.51531 48.9333C5.20851 53.8366 5.51531 61.7295 3.63656 65.9949C3.63656 65.9949 5.51531 70.2602 12.4441 72.3987L18.378 72.3961L16.788 48.9333Z" fill="#5A4146"/>
<path d="M32.46 77.5266L26.3801 74.0759C25.107 73.3534 24.3028 71.8762 24.3028 70.2605L24.303 63.862H13.0305V70.2605C13.0305 71.876 12.2264 73.3528 10.9535 74.0754L4.87336 77.5264C2.96391 78.6103 1.75781 80.8254 1.75781 83.2489V97.9852H35.5758V83.2491C35.5758 80.8259 34.3697 78.6105 32.46 77.5266Z" fill="#E6AF78"/>
<path d="M35.5758 83.2494C35.5758 80.8259 34.3694 78.6105 32.46 77.5266L26.3801 74.0759C26.0302 73.8775 25.7255 73.6127 25.4536 73.3132L23.2973 76.0375C20.7506 79.2551 16.5832 79.2549 14.0365 76.0375L11.88 73.3129C11.6079 73.6125 11.3032 73.8772 10.9537 74.0757L4.87335 77.5266C2.96414 78.6102 1.75804 80.8257 1.75804 83.2489V97.9854H35.576L35.5758 83.2494Z" fill="#D5DCED"/>
<path d="M18.6668 68.1276C14.3611 68.1276 10.6191 65.3872 8.72063 61.3592C7.43016 58.621 8.27156 55.186 10.5082 53.3979C10.9373 53.0547 11.3808 52.6633 11.817 52.2214C13.1604 50.8605 13.9472 49.4255 14.3906 48.3738C14.7705 47.4729 15.6459 46.9642 16.4986 47.2109C23.1321 49.1296 27.6434 53.0515 29.269 54.6401C29.7009 55.0623 29.9496 55.6838 29.9058 56.329C29.4574 62.93 24.597 68.1276 18.6668 68.1276Z" fill="#F0C087"/>
<path d="M29.2669 54.6379C27.6401 53.0483 23.1324 49.1315 16.5059 47.2127C15.649 46.9645 14.7699 47.4764 14.3876 48.3815C14.0513 49.1772 13.4956 50.1914 12.6708 51.2264C12.6706 51.2288 12.6701 51.2311 12.6699 51.2335C12.4139 51.5629 12.1413 51.8928 11.8172 52.2214C11.3988 52.6449 10.9779 53.0283 10.5616 53.355C7.91016 55.4372 7.51196 59.2563 9.13688 62.1574C10.8464 65.2092 13.6702 67.3773 16.9577 67.948C14.7084 66.2109 13.0306 63.8558 13.0306 59.5971V57.9492C13.4574 57.5916 13.887 57.2349 14.3189 56.7975C15.3631 55.7397 16.2748 54.5164 17.0058 53.1991C22.0664 54.9918 25.4972 57.9774 26.7977 59.247C27.1538 59.6014 27.653 60.1021 28.6868 61.203C29.3499 60.0154 29.8127 57.7031 29.9058 56.3263C29.9496 55.6817 29.6981 55.0594 29.2669 54.6379Z" fill="#E6AF78"/>
<path d="M2.9032 79.4047C2.17945 80.4947 1.75781 81.8327 1.75781 83.2492V97.9852H9.27305V87.2391C9.27305 85.9435 8.75414 84.7178 7.86281 83.9084L2.9032 79.4047Z" fill="#C7CFE2"/>
<path d="M34.4306 79.4047C35.1544 80.4947 35.576 81.8327 35.576 83.2492V97.9852H28.0608V87.2391C28.0608 85.9435 28.5797 84.7178 29.471 83.9084L34.4306 79.4047Z" fill="#C7CFE2"/>
<path d="M86.303 42.5353V44.0321C86.303 45.866 86.5634 47.6876 87.0743 49.4273L90.0605 59.5969H95.6967V36.1373H91.9392C88.8265 36.137 86.303 39.0016 86.303 42.5353Z" fill="#5A4146"/>
<path d="M112.172 46.3911L108.848 59.5969L93.818 44.6679C91.7428 44.6679 90.0605 42.7582 90.0605 40.4026C90.0605 36.8689 92.584 34.0046 95.6967 34.0046H112.606V42.8758C112.606 44.0645 112.46 45.2479 112.172 46.3911Z" fill="#694B4B"/>
<path d="M105.091 65.9946H93.818V78.7917H105.091V65.9946Z" fill="#E6AF78"/>
<path d="M114.154 74.1081L105.09 71.1685L99.4544 78.7909L93.8182 71.1685L84.7547 74.1081C82.335 74.893 80.6667 77.4035 80.6667 80.2601V97.9852H118.242V80.2603C118.242 77.4035 116.574 74.893 114.154 74.1081Z" fill="#D5DCED"/>
<path d="M99.4544 68.1276C93.2287 68.1276 88.1817 62.3984 88.1817 55.3313C88.1817 52.6003 89.1375 49.981 90.8386 48.0497L92.689 45.9492C93.4104 45.1303 94.3969 44.6594 95.4164 44.6959C101.422 44.9108 106.738 46.3715 109.644 49.5931C110.356 50.3817 110.727 51.485 110.727 52.6136V55.331C110.727 62.3984 105.68 68.1276 99.4544 68.1276Z" fill="#F0C087"/>
<path d="M93.818 55.3313C93.818 52.8711 95.6381 50.9156 97.8009 51.0721C101.594 51.3466 107.222 52.0663 110.675 53.9518C110.562 53.052 110.221 50.2332 109.644 49.5931C106.738 46.3715 101.422 44.9108 95.4164 44.6959H95.4162C94.3966 44.6594 93.4101 45.1306 92.6887 45.9492L90.8384 48.0497C89.137 49.981 88.1815 52.6 88.1815 55.3313C88.1815 61.1669 91.6261 66.0803 96.3307 67.6189C94.7648 65.4256 93.8177 62.6419 93.8177 59.5966V55.3313H93.818Z" fill="#E6AF78"/>
<path d="M110.727 86.6149C110.727 84.9181 111.321 83.2906 112.378 82.0907L117.214 76.6008C117.861 77.6495 118.242 78.9122 118.242 80.26V97.9852H110.727V86.6149Z" fill="#C7CFE2"/>
<path d="M86.9923 74.6163L71.2727 68.1276L60 72.3929L48.7273 68.1276L33.0077 74.6163C30.0377 75.8423 28.0608 79.0463 28.0608 82.6335V97.9852H91.9392V82.6335C91.9392 79.0463 89.9623 75.8423 86.9923 74.6163Z" fill="#506A76"/>
<path d="M89.917 76.8213C91.1857 78.3671 91.9392 80.4255 91.9392 82.6338V97.9857H80.6665V90.8558C80.6665 88.5933 81.4582 86.4234 82.8675 84.8236L89.917 76.8213Z" fill="#546E7A"/>
<path d="M80.6665 24.1453V6.2791C80.6665 3.92348 78.9841 2.01376 76.909 2.01376H54.3635C46.0627 2.01376 39.3333 9.65264 39.3333 19.0754V24.1453C39.3333 26.4376 39.6588 28.7147 40.2975 30.8894L40.9228 33.0191C41.1143 33.6715 41.212 34.3547 41.212 35.0425V36.137H78.7877V35.0425C78.7877 34.3547 78.8855 33.6715 79.077 33.0191L79.7023 30.8894C80.3409 28.715 80.6665 26.4376 80.6665 24.1453Z" fill="#5A4146"/>
<path d="M48.7273 10.678C48.7273 15.4629 52.1445 19.3422 56.3599 19.3422H57.4167L57.927 36.1373H78.788V35.0427C78.788 34.355 78.8857 33.672 79.0772 33.0194L79.7025 30.8897C80.3412 28.715 80.6667 26.4378 80.6667 24.1455V6.2791C80.6667 3.92322 78.9844 2.01376 76.9092 2.01376H56.3602C52.1445 2.01376 48.7273 5.89279 48.7273 10.678Z" fill="#694B4B"/>
<path d="M71.2711 53.1975H48.7266V72.3905H71.2711V53.1975Z" fill="#E6AF78"/>
<path d="M48.7273 62.8507C52.1018 64.849 55.9305 65.9949 60 65.9949C64.0695 65.9949 67.8982 64.849 71.2727 62.8507V53.1986H48.7273V62.8507Z" fill="#D29B6E"/>
<path d="M60 72.3929L54.008 79.1948C53.2027 80.1089 51.8714 80.006 51.1828 78.9761L44.9698 69.6832L46.5949 65.7956C47.0745 64.6484 48.3253 64.228 49.2778 64.8942L60 72.3929Z" fill="#546E7A"/>
<path d="M60 72.3929L65.992 79.1948C66.7973 80.1089 68.1286 80.006 68.8172 78.9761L75.0302 69.6832L73.4051 65.7956C72.9255 64.6484 71.6747 64.228 70.7222 64.8942L60 72.3929Z" fill="#546E7A"/>
<path d="M60 59.5969C49.6237 59.5969 41.2123 50.0486 41.2123 38.2699V36.1373L44.3388 33.7713C45.9068 32.5847 46.8487 30.5869 46.8487 28.4476V21.2083C46.8487 21.2083 61.8792 14.81 73.1517 25.4739C73.1517 25.4739 73.1517 26.926 73.1517 28.4465C73.1517 30.5858 74.0934 32.5844 75.6616 33.7713L78.788 36.1373V38.2699C78.7877 50.0483 70.3762 59.5969 60 59.5969Z" fill="#F0C087"/>
<path d="M30.083 76.8213C28.8143 78.3671 28.0608 80.4255 28.0608 82.6338V97.9857H39.3335V90.8558C39.3335 88.5933 38.5418 86.4234 37.1325 84.8236L30.083 76.8213Z" fill="#546E7A"/>
<path d="M55.7897 26.3343C59.8751 25.7527 67.0263 25.4188 73.1515 28.4462C73.1515 27.5911 73.1515 25.4736 73.1515 25.4736C61.8787 14.8097 46.8485 21.208 46.8485 21.208V28.4473C46.8485 30.5866 45.9068 32.5841 44.3386 33.771L41.2123 36.137V38.2696C41.2123 49.174 48.4261 58.1511 57.7296 59.426H57.7301C54.488 55.5938 52.485 50.4005 52.485 44.6679V30.5709C52.4848 28.4095 53.9006 26.6033 55.7897 26.3343Z" fill="#E6AF78"/>
<path d="M104.3 48.5839C104.552 48.7274 104.82 48.7949 105.084 48.7949C105.729 48.7949 106.35 48.3905 106.658 47.6916C107.092 46.7059 106.74 45.5073 105.872 45.0143C101.789 42.697 94.1327 42.6702 93.8088 42.6702C92.838 42.6702 92.051 43.5636 92.051 44.6655C92.051 45.7675 92.838 46.6609 93.8088 46.6609C95.7844 46.6612 101.52 47.0065 104.3 48.5839Z" fill="black"/>
<path d="M114.636 73.4236L107.376 71.069C107.062 70.9674 106.844 70.638 106.844 70.2679V67.5172C107.434 67.0527 107.998 66.5328 108.524 65.9526C111.077 63.1409 112.482 59.3697 112.482 55.3331V51.5374L113.184 49.944C113.955 48.1947 114.362 46.2363 114.362 44.2808V33.9979C114.362 32.8959 113.575 32.0025 112.604 32.0025H95.6883C89.5373 32.0025 84.533 37.6833 84.533 44.6655V44.7845C84.533 46.4106 84.8716 48.0391 85.5122 49.4933L86.4124 51.5371V54.7962C86.4124 59.9614 88.6547 64.5957 92.051 67.3845L92.0515 70.2674C92.0515 70.712 92.0515 70.8961 90.6 71.367L87.0577 72.5158L76.8105 68.2861C76.8473 67.7373 76.6842 67.1791 76.3315 66.7585L73.057 62.8533V56.2978C73.4032 55.9741 73.7445 55.6415 74.0751 55.2898C78.206 50.8946 80.5751 44.6892 80.5751 38.2649V33.0295C81.8224 29.9484 82.4545 26.6879 82.4545 23.3301V1.99539C82.4545 0.893401 81.6675 0 80.6967 0H54.3837C45.1235 0 37.59 8.55196 37.59 19.0634V23.3306C37.59 26.6884 38.2221 29.9489 39.4695 33.03V37.5345C39.4695 44.9936 42.3912 51.7135 46.9875 56.1438V62.8536L43.713 66.7587C43.3603 67.1793 43.1972 67.7375 43.234 68.2864L32.4188 72.7505C31.635 73.074 30.9068 73.5122 30.2456 74.0429L28.5473 73.079C33.6028 70.5811 35.2043 67.0679 35.2812 66.8933C35.5287 66.3317 35.5287 65.6703 35.2812 65.1087C34.0139 62.2316 33.8604 56.9582 33.7371 52.721C33.6961 51.3104 33.6572 49.9778 33.5829 48.7912C32.9836 39.2203 26.5739 32.0025 18.6731 32.0025C10.7723 32.0025 4.36242 39.22 3.76336 48.7912C3.68906 49.978 3.65016 51.3107 3.60914 52.7216C3.48586 56.9584 3.33211 62.2313 2.06508 65.1084C1.81758 65.67 1.81758 66.3314 2.06508 66.8931C2.14195 67.0676 3.74016 70.5736 8.8057 73.0745L4.08844 75.7518C1.56656 77.1839 0 80.0613 0 83.2619V98.0035C0 99.1055 0.787031 99.9989 1.75781 99.9989C2.72859 99.9989 3.51562 99.1055 3.51562 98.0035V83.2619C3.51562 81.5826 4.33758 80.0727 5.66062 79.3217L11.5348 75.9878L13.578 78.192C15.0068 79.7333 16.8396 80.5035 18.6731 80.5035C20.5062 80.5035 22.3399 79.7327 23.7682 78.192L25.8112 75.988L27.7266 77.0751C26.8247 78.7132 26.3128 80.6341 26.3128 82.6463V98.0041C26.3128 99.1061 27.0998 99.9995 28.0706 99.9995C29.0414 99.9995 29.8284 99.1061 29.8284 98.0041V82.6463C29.8284 79.907 31.3521 77.4375 33.6202 76.5013L45.023 71.7945L49.7698 79.8775C50.3766 80.9108 51.349 81.5735 52.4377 81.6959C52.5591 81.7095 52.6798 81.7161 52.8002 81.7161C53.7607 81.7161 54.6806 81.287 55.3683 80.5067L58.2642 77.2193V98.0043C58.2642 99.1063 59.0513 99.9997 60.022 99.9997C60.9928 99.9997 61.7798 99.1063 61.7798 98.0043V77.2193L64.6758 80.5067C65.3632 81.2873 66.2831 81.7164 67.2438 81.7164C67.3641 81.7164 67.485 81.7098 67.6062 81.6962C68.6951 81.5738 69.6675 80.9111 70.2743 79.8777L75.0213 71.7951L86.4239 76.5018C88.6917 77.438 90.2156 79.9075 90.2156 82.6468V98.0046C90.2156 99.1066 91.0027 100 91.9734 100C92.9442 100 93.7313 99.1066 93.7313 98.0046V82.6468C93.7313 79.8724 92.7602 77.2704 91.1313 75.3461L91.5656 75.2053C92.0037 75.0633 92.6013 74.8688 93.2013 74.5349L97.6894 79.6295V98.0046C97.6894 99.1066 98.4764 100 99.4472 100C100.418 100 101.205 99.1066 101.205 98.0046V79.6295L105.662 74.5703C105.899 74.707 106.148 74.8225 106.41 74.9073L113.67 77.2619C115.327 77.7993 116.484 79.5412 116.484 81.4977V98.0046C116.484 99.1066 117.271 100 118.242 100C119.213 100 120 99.1066 120 98.0046V81.4977C120 77.7679 117.794 74.4481 114.636 73.4236ZM26.0693 69.9058L26.0695 67.526C28.1145 65.9278 29.7403 63.6797 30.7104 61.0213C30.9211 62.7395 31.2321 64.3672 31.7112 65.7884C31.0111 66.7566 29.3541 68.5633 26.0693 69.9058ZM7.27031 49.0743C7.49484 45.489 8.75695 42.1851 10.8241 39.771C12.9098 37.335 15.6975 35.9936 18.6736 35.9936C21.6497 35.9936 24.4371 37.335 26.523 39.771C28.5902 42.1851 29.8523 45.489 30.0769 49.0743C30.1462 50.1856 30.1842 51.4812 30.2241 52.853C30.2276 52.9709 30.2311 53.0903 30.2346 53.209C28.3221 49.8642 25.3685 47.3992 21.5522 46.0072C18.0265 44.7214 14.9941 44.801 14.8662 44.8047C14.4059 44.8193 13.969 45.038 13.6495 45.4142L10.478 49.148C9.80414 49.9413 9.8243 51.2045 10.5232 51.9694C11.2221 52.7343 12.3349 52.7112 13.0087 51.9181L15.6478 48.8114C17.9205 48.9375 25.2323 49.9028 28.076 57.0109C27.3605 62.2491 23.3944 66.1391 18.6741 66.1391C13.425 66.1391 9.15492 61.2916 9.15492 55.3334C9.15492 54.2314 8.36789 53.338 7.39711 53.338C7.29867 53.338 7.20258 53.3495 7.10859 53.3673C7.11375 53.1957 7.11867 53.0238 7.12383 52.8538C7.16297 51.4818 7.2007 50.1858 7.27031 49.0743ZM5.63555 65.7879C6.11555 64.3635 6.4268 62.732 6.6375 61.0099C7.60687 63.6483 9.23039 65.9007 11.277 67.5077V69.8992C7.98891 68.5562 6.33961 66.7656 5.63555 65.7879ZM16.0001 75.2992L14.3653 73.5359C14.6412 72.9492 14.7928 72.2841 14.7928 71.5873V69.4605C16.0191 69.8955 17.3227 70.1301 18.6736 70.1301C20.0229 70.1301 21.3258 69.8944 22.5541 69.4618L22.5539 71.587C22.5539 72.2841 22.7053 72.9495 22.9814 73.5364L21.3469 75.2995C19.8476 76.9166 17.4989 76.9163 16.0001 75.2992ZM42.9851 37.5343V32.5836C42.9851 32.2832 42.9253 31.9866 42.8102 31.716C41.6791 29.0571 41.1056 26.2359 41.1056 23.3306V19.0634C41.1056 10.7522 47.0623 3.99077 54.3837 3.99077H78.9389V23.3306C78.9389 26.2359 78.3654 29.0571 77.2343 31.716C77.1192 31.9866 77.0594 32.2832 77.0594 32.5836V38.2651C77.0594 43.6689 75.1458 48.681 71.6709 52.3784C71.2371 52.8397 70.7869 53.2723 70.3214 53.6754C70.3111 53.6833 70.3012 53.6921 70.2912 53.7004C67.0359 56.5059 63.0488 57.8694 58.8848 57.5632C49.969 56.9079 42.9851 48.1101 42.9851 37.5343ZM58.6573 61.5454C59.1206 61.5795 59.5812 61.5963 60.0403 61.5963C63.4015 61.5963 66.6363 60.6842 69.5414 58.953V62.5979L60.0223 69.9841L50.5031 62.5979V58.8732C52.9662 60.3847 55.7241 61.3299 58.6573 61.5454ZM52.8825 77.6844C52.8703 77.6982 52.842 77.7309 52.7845 77.724C52.7273 77.7176 52.7048 77.6796 52.6952 77.6631L47.2284 68.3545L48.9877 66.2561L57.281 72.6911L52.8825 77.6844ZM67.3493 77.6634C67.3397 77.6799 67.3172 77.7179 67.26 77.7243C67.2026 77.7325 67.1745 77.6982 67.162 77.6847L62.7635 72.6917L71.0569 66.2564L72.8163 68.3548L67.3493 77.6634ZM89.928 54.7968V51.0665C89.928 50.7565 89.8645 50.4511 89.7424 50.1741L88.6566 47.7089C88.2588 46.8056 88.0486 45.7947 88.0486 44.7847V44.6658C88.0486 39.8838 91.4759 35.9936 95.6883 35.9936H110.846V44.2811C110.846 45.6204 110.567 46.9616 110.04 48.1596L109.152 50.1741C109.03 50.4514 108.967 50.7565 108.967 51.0665V55.3334C108.967 58.2812 107.94 61.0354 106.076 63.0888C104.213 65.1411 101.752 66.225 99.1533 66.134C94.0664 65.9608 89.928 60.8747 89.928 54.7968ZM99.0476 70.1229C99.183 70.1277 99.3173 70.1299 99.4523 70.1299C100.786 70.1299 102.089 69.9011 103.328 69.4645V70.2679C103.328 70.6659 103.372 71.056 103.455 71.4308L99.4472 75.9801L95.4581 71.4521C95.5277 71.0932 95.5671 70.7003 95.5669 70.2669L95.5666 69.4248C96.6736 69.8372 97.8403 70.082 99.0476 70.1229Z" fill="black"/>
<path d="M110.724 83.2071C109.753 83.2071 108.966 84.1005 108.966 85.2025V98.0036C108.966 99.1055 109.753 99.9989 110.724 99.9989C111.695 99.9989 112.482 99.1055 112.482 98.0036V85.2025C112.482 84.1005 111.695 83.2071 110.724 83.2071Z" fill="black"/>
<path d="M9.27586 85.8447C8.30508 85.8447 7.51805 86.7381 7.51805 87.8401V98.0035C7.51805 99.1055 8.30508 99.9989 9.27586 99.9989C10.2466 99.9989 11.0337 99.1055 11.0337 98.0035V87.8401C11.0337 86.7381 10.2466 85.8447 9.27586 85.8447Z" fill="black"/>
<path d="M48.6234 23.0007C48.6234 22.9328 48.6628 22.8748 48.7153 22.8658C50.981 22.4782 55.477 21.8801 60.1352 22.2326C65.6168 22.6468 69.5871 24.2088 71.9358 26.8752C72.6223 27.6545 73.7353 27.6545 74.4216 26.8752C75.1081 26.0959 75.1081 24.8324 74.4216 24.0534C67.7733 16.5066 53.8634 17.9494 48.191 18.92C46.4044 19.2257 45.1078 20.942 45.1078 23.0009V27.5978C45.1078 28.6998 45.8948 29.5932 46.8656 29.5932C47.8364 29.5932 48.6234 28.6998 48.6234 27.5978V23.0007Z" fill="black"/>
<path d="M39.3478 87.4743C38.377 87.4743 37.59 88.3677 37.59 89.4697V98.0038C37.59 99.1058 38.377 99.9992 39.3478 99.9992C40.3186 99.9992 41.1056 99.1058 41.1056 98.0038V89.4697C41.1056 88.3677 40.3186 87.4743 39.3478 87.4743Z" fill="black"/>
<path d="M80.6967 87.4743C79.7259 87.4743 78.9389 88.3677 78.9389 89.4697V98.0038C78.9389 99.1058 79.7259 99.9992 80.6967 99.9992C81.6675 99.9992 82.4545 99.1058 82.4545 98.0038V89.4697C82.4545 88.3677 81.6675 87.4743 80.6967 87.4743Z" fill="black"/>
</svg>
