<svg width="30" height="40" viewBox="0 0 30 40" fill="none" xmlns="http://www.w3.org/2000/svg">
<path fill-rule="evenodd" clip-rule="evenodd" d="M28.3056 39.4147L29.3754 37.6782L29.3753 14.2175H5.84976L3.97595 15.2314V37.6782L5.04581 39.4147H28.3056Z" fill="#E0DFDE"/>
<path fill-rule="evenodd" clip-rule="evenodd" d="M8.34798 14.2175H5.84976L3.97595 15.2314V37.6782L5.04581 39.4147H7.54411L6.47425 37.6782V15.2314L8.34798 14.2175Z" fill="#BFBEC1"/>
<path fill-rule="evenodd" clip-rule="evenodd" d="M11.4708 35.9029V17.7294H8.97247V35.9029H11.4708ZM24.3788 35.9029V17.7294H21.8805V35.9029H24.3788ZM17.9248 35.9029V17.7294H15.4265V35.9029H17.9248Z" fill="#BFBEC1"/>
<path fill-rule="evenodd" clip-rule="evenodd" d="M16.6677 8.36447L5.84976 14.2175H29.3753V11.8763H26.877V8.36447H16.6677Z" fill="#5F7D95"/>
<path fill-rule="evenodd" clip-rule="evenodd" d="M25.0034 6.02322H20.9948L16.6677 8.36447H25.0034V6.02322Z" fill="#5F7D95"/>
<path fill-rule="evenodd" clip-rule="evenodd" d="M23.493 6.02322L19.1659 8.36447H16.6677L20.9948 6.02322H23.493Z" fill="#87B3D6"/>
<path fill-rule="evenodd" clip-rule="evenodd" d="M19.1659 8.36447L8.34798 14.2175H5.84976L16.6676 8.36447H19.1659Z" fill="#87B3D6"/>
<path fill-rule="evenodd" clip-rule="evenodd" d="M0.853027 14.2175L23.9307 1.73086L25.1798 3.75838L2.10218 16.245L0.853027 14.2175Z" fill="#BFBEC1"/>
<path fill-rule="evenodd" clip-rule="evenodd" d="M19.6173 1.36172L2.66911 10.5316L1.75473 13.7297L23.03 2.21862L19.6173 1.36172Z" fill="#BFBEC1"/>
<path d="M27.5017 21.2423H26.2526V18.3146H27.5017V21.2423ZM27.4812 17.1441H26.273V15.9735H27.4812V17.1441Z" fill="#5F7D95"/>
<path d="M18.6093 11.291H19.8175V12.4617H18.6093V11.291Z" fill="#5F7D95"/>
<path d="M29.9999 13.6322V11.291H27.5017V7.7791H25.628V5.43785H23.3257L26.0338 3.97262L24.1601 0.931269L22.9417 1.59049L19.529 0.73359L16.8074 2.20623L16.0534 0.982464L12.141 0L5.14891 3.78314L4.10046 7.4496L4.85445 8.67337L2.1328 10.1459L1.21842 13.3441L0 14.0033L1.87372 17.0446L3.35139 16.2451V18.7302H4.60054V15.5693L6.01715 14.8028H28.7508L28.7509 37.5213L27.945 38.8294H5.4064L4.60054 37.5213V19.9008H3.35139V37.835L4.68523 40H28.6662L30 37.835L29.9999 13.6322ZM24.3788 6.60855V7.77917H18.9986L21.1621 6.60855H24.3788ZM5.44105 7.28423L6.2216 4.55442L12.3175 1.25616L15.2304 1.98764L15.7255 2.79147L5.93613 8.08806L5.44105 7.28423ZM3.20548 10.9173L19.7056 1.98982L21.4119 2.41827L2.74821 12.5163L3.20548 10.9173ZM1.70634 14.4317L23.703 2.53042L24.3274 3.54425L2.33091 15.4456L1.70634 14.4317ZM8.18068 13.6322L16.835 8.94972H26.2525V11.291H21.0667V12.4616H28.7507V13.6322H8.18068Z" fill="black"/>
<path d="M25.0034 21.2413V17.1441H21.2559V36.4882H25.0034V22.4118H23.7542V35.3176H22.5051V18.3147H23.7542V21.2413H25.0034Z" fill="black"/>
<path d="M8.34799 17.1441V36.4882H12.0954L12.0954 17.1441H8.34799ZM9.59714 35.3176V18.3147H10.8462L10.8463 35.3176H9.59714Z" fill="black"/>
<path d="M14.802 31.0948V36.4882H18.5494V17.135L14.8019 17.1893L14.802 29.9242H16.0512L16.0511 18.3419L17.3002 18.3238V35.3176H16.0512V31.0948H14.802Z" fill="black"/>
</svg>
