<svg width="35" height="40" viewBox="0 0 35 40" fill="none" xmlns="http://www.w3.org/2000/svg">
<path d="M22.2136 8.42261L24.4087 5.91394L29.8243 12.1029L27.6291 14.6116L22.2136 8.42261Z" fill="#65727F"/>
<path d="M4.03968 29.1889L22.2117 8.42161L27.6272 14.6106L9.45523 35.3779L4.03968 29.1889Z" fill="white"/>
<path d="M24.4091 5.91422L29.0644 0.594039L34.48 6.78303L29.8246 12.1032L24.4091 5.91422Z" fill="#C7EBFF"/>
<path d="M9.45861 35.3806L0.515244 39.4111L4.04207 29.1905L9.45861 35.3806Z" fill="#9B6E42"/>
<path d="M4.28263 37.7136L0.516716 39.4095L2.0007 35.1057L4.28263 37.7136Z" fill="#65727F"/>
<path d="M34.8492 6.36381L29.4315 0.172327C29.3349 0.0619838 29.2039 0 29.0673 0C28.9307 0 28.7997 0.0619838 28.703 0.172327L10.5145 20.9609C10.4666 21.0156 10.4287 21.0805 10.4028 21.1519C10.3769 21.2234 10.3636 21.3 10.3636 21.3773C10.3636 21.4546 10.3769 21.5312 10.4028 21.6027C10.4287 21.6741 10.4666 21.739 10.5145 21.7937C10.5623 21.8484 10.6191 21.8918 10.6817 21.9214C10.7442 21.951 10.8112 21.9662 10.8789 21.9662C10.9465 21.9662 11.0135 21.951 11.0761 21.9214C11.1386 21.8918 11.1954 21.8484 11.2432 21.7937L22.2168 9.25294L23.2473 10.4307L5.80224 30.3693L4.77169 29.1915L6.79009 26.8849C6.88673 26.7744 6.94102 26.6246 6.94102 26.4685C6.94102 26.3123 6.88673 26.1625 6.79009 26.052C6.69345 25.9416 6.56239 25.8796 6.42572 25.8796C6.28905 25.8796 6.15799 25.9416 6.06135 26.052L3.67873 28.7753C3.66624 28.7909 3.65454 28.8073 3.64369 28.8244C3.63603 28.8352 3.62779 28.8449 3.62072 28.8564C3.59812 28.8929 3.57925 28.9323 3.56448 28.9738L1.524 34.8826V34.8847L0.0358928 39.1948C-0.000929701 39.3016 -0.00965164 39.4184 0.0107986 39.5308C0.0312488 39.6431 0.0799805 39.7463 0.151006 39.8274C0.222032 39.9086 0.312259 39.9643 0.410601 39.9877C0.508943 40.011 0.611117 40.0011 0.70457 39.959L4.47607 38.259L9.64618 35.9288C9.68243 35.9118 9.7169 35.8903 9.74894 35.8645C9.75895 35.8565 9.76749 35.847 9.77838 35.8383C9.79321 35.8258 9.80746 35.8124 9.82107 35.7982L27.9961 15.0278V15.0262L30.1897 12.5196L31.1401 11.4338C31.2368 11.3233 31.2911 11.1735 31.2911 11.0173C31.2911 10.8612 31.2368 10.7114 31.1401 10.6009C31.0435 10.4905 30.9124 10.4284 30.7758 10.4284C30.6391 10.4284 30.508 10.4905 30.4114 10.6009L29.8249 11.2716L25.1409 5.91122L29.0684 1.42307L33.7562 6.78005L32.1727 8.58971C32.0761 8.70015 32.0218 8.84994 32.0218 9.00612C32.0218 9.16231 32.0761 9.31209 32.1727 9.42253C32.2694 9.53297 32.4004 9.59502 32.5371 9.59502C32.6738 9.59502 32.8048 9.53297 32.9015 9.42253L34.8492 7.19629C34.9458 7.08587 35 6.93615 35 6.78005C35 6.62395 34.9458 6.47423 34.8492 6.36381ZM23.9778 11.2642L25.1447 12.5977L7.69874 32.5366L6.53069 31.2017L23.9778 11.2642ZM9.45862 34.5478L8.42807 33.3701L25.8732 13.4315L26.9037 14.6092L9.45862 34.5478ZM2.19238 36.1563L3.36338 37.4945L1.42978 38.366L2.19238 36.1563ZM4.40835 37.0234L2.6046 34.9621L4.23345 30.2417L5.43713 31.6173L7.33216 33.783L8.53584 35.1586L4.40835 37.0234ZM29.1011 12.101L27.6345 13.7774L22.9455 8.42012L24.4124 6.7427L29.1011 12.101Z" fill="black"/>
<path d="M8.13981 25.0964C8.20753 25.0965 8.27459 25.0813 8.33715 25.0517C8.39971 25.0221 8.45652 24.9786 8.50433 24.9238L9.44095 23.8534C9.49016 23.7991 9.5294 23.7341 9.55639 23.6622C9.58338 23.5904 9.59758 23.5131 9.59816 23.4349C9.59875 23.3567 9.58569 23.2792 9.55977 23.2068C9.53385 23.1345 9.49558 23.0687 9.44719 23.0134C9.3988 22.9582 9.34126 22.9145 9.27793 22.8849C9.2146 22.8553 9.14674 22.8404 9.07833 22.8411C9.00991 22.8418 8.9423 22.858 8.87944 22.8889C8.81658 22.9198 8.75973 22.9647 8.71221 23.0209L7.77559 24.091C7.70362 24.1734 7.65462 24.2783 7.63479 24.3925C7.61495 24.5067 7.62516 24.625 7.66412 24.7326C7.70309 24.8401 7.76907 24.9321 7.85373 24.9969C7.93839 25.0616 8.03794 25.0963 8.13981 25.0964Z" fill="black"/>
</svg>
