<svg width="140" height="90" viewBox="0 0 140 90" fill="none" xmlns="http://www.w3.org/2000/svg">
<path d="M87.4658 44.9997C87.4658 69.8578 67.8896 89.9995 43.7329 89.9995C19.5761 89.9995 0 69.8533 0 44.9997C0 20.1461 19.5809 0 43.7329 0C67.8848 0 87.4658 20.1461 87.4658 44.9997Z" fill="#E2574C"/>
<path d="M96.2547 0C86.4467 0 77.4174 3.36156 70.1207 8.9732L70.1557 8.97764C71.5908 10.404 73.1741 11.4079 74.3947 13.0499L65.2954 13.1985C63.8694 14.6791 62.5701 16.2901 61.3452 17.9642H77.391C78.6116 19.4715 79.7401 20.7813 80.764 22.4461H58.4362C57.6182 23.8951 56.8615 25.3847 56.2008 26.9324H83.3059C84.0146 28.4758 84.6489 29.6415 85.1872 31.2752H54.5955C54.1099 32.8279 53.6944 34.4161 53.3792 36.0359H86.4687C86.7926 37.5931 87.0416 39.0328 87.2124 40.5001H52.7228C52.5784 41.9807 52.504 43.4836 52.504 45.0002H87.4614C87.4614 46.5934 87.352 48.0691 87.1947 49.5004H52.7228C52.8715 51.026 53.0903 52.5244 53.3792 54.0006H86.416C86.0748 55.4585 85.6809 56.9254 85.1867 58.4465H54.4947C54.9582 59.9854 55.5229 61.4793 56.1394 62.9373H83.3059C82.5536 64.5754 81.7005 65.8848 80.7601 67.4192H58.358C59.2418 68.9941 60.2172 70.497 61.2756 71.9371L77.3915 72.1844C76.0178 73.8807 74.2551 74.9024 72.6492 76.3875C72.7365 76.4595 70.0813 76.3786 64.8535 76.2932C72.8066 84.7353 83.9225 90 96.2542 90C120.415 90 140 69.8534 140 45.0002C140 20.1471 120.42 0 96.2547 0Z" fill="#F4B459"/>
</svg>
