<svg width="101" height="97" viewBox="0 0 101 97" fill="none" xmlns="http://www.w3.org/2000/svg">
<path d="M98.2372 19.9445V41.7021C98.2372 43.6255 97.5355 45.4703 96.2865 46.8304C95.0374 48.1905 93.3434 48.9546 91.577 48.9546H31.6357C29.8693 48.9546 28.1753 48.1905 26.9263 46.8304C25.6772 45.4703 24.9756 43.6255 24.9756 41.7021V19.9445H98.2372Z" fill="#CDDC39"/>
<path d="M68.2665 48.9546H91.577C93.3434 48.9546 95.0374 48.1905 96.2865 46.8304C97.5355 45.4703 98.2372 43.6256 98.2372 41.7021V16.3182C98.2394 20.6047 97.4656 24.8497 95.9603 28.8104C94.4549 32.7711 92.2473 36.3699 89.4639 39.4009C86.6804 42.432 83.3756 44.8359 79.7384 46.4751C76.1012 48.1144 72.2029 48.957 68.2665 48.9546Z" fill="#CDDC39"/>
<path d="M24.9756 9.06567V12.6919H98.2372V9.06567C98.2372 7.14218 97.5355 5.29747 96.2865 3.93736C95.0374 2.57724 93.3434 1.81314 91.577 1.81314H31.6357C29.8693 1.81314 28.1753 2.57724 26.9263 3.93736C25.6772 5.29747 24.9756 7.14218 24.9756 9.06567Z" fill="#CDDC39"/>
<path d="M24.9756 12.6919H98.2372V19.9445H24.9756V12.6919Z" fill="#6D6E71"/>
<path d="M86.5819 41.7021C89.3406 41.7021 91.577 39.2667 91.577 36.2627C91.577 33.2586 89.3406 30.8233 86.5819 30.8233C83.8232 30.8233 81.5868 33.2586 81.5868 36.2627C81.5868 39.2667 83.8232 41.7021 86.5819 41.7021Z" fill="white"/>
<path d="M1.66504 59.8334V94.2829H18.3154V90.6566V65.2728V59.8334H1.66504Z" fill="#CDDC39"/>
<path d="M13.3203 59.8334H18.3154V94.2829H13.3203V59.8334Z" fill="#CDDC39"/>
<path d="M70.6309 69.8419L91.4438 56.751C92.592 56.0297 93.9562 55.8346 95.2365 56.2087C96.5167 56.5827 97.6081 57.4952 98.2705 58.7455C98.9329 59.9958 99.112 61.4814 98.7686 62.8755C98.4251 64.2696 97.5871 65.458 96.4389 66.1793L58.7958 91.6756C56.2998 93.366 53.3604 94.11 50.4357 93.7915L22.3115 90.7291C21.8689 90.6802 21.4243 90.656 20.9795 90.6566H18.3154V65.2728H20.3634C21.2104 65.2727 22.0496 65.0967 22.836 64.7542L32.4932 60.5477C36.2706 58.9016 40.4196 58.5512 44.3849 59.5433L66.9595 65.1875C67.5932 65.3723 68.1872 65.6911 68.7077 66.1259C69.2282 66.5607 69.665 67.1028 69.9931 67.7214C70.3212 68.34 70.5342 69.0229 70.6199 69.7311C70.7056 70.4393 70.6624 71.159 70.4927 71.849C70.3229 72.5391 70.0299 73.1859 69.6304 73.7527C69.231 74.3194 68.7329 74.7949 68.1647 75.1521C67.5965 75.5092 66.9692 75.7409 66.3188 75.834C65.6683 75.9271 65.0073 75.8797 64.3737 75.6946L48.2861 72.286" fill="#FFBCAB"/>
<path d="M78.2567 41.7021C81.0154 41.7021 83.2518 39.2667 83.2518 36.2627C83.2518 33.2586 81.0154 30.8233 78.2567 30.8233C75.498 30.8233 73.2616 33.2586 73.2616 36.2627C73.2616 39.2667 75.498 41.7021 78.2567 41.7021Z" fill="#F15A29"/>
<path d="M31.6357 50.7677H91.577C93.7842 50.7648 95.9002 49.8088 97.4609 48.1092C99.0216 46.4097 99.8996 44.1055 99.9022 41.702V9.06566C99.8996 6.66218 99.0216 4.35797 97.4609 2.65845C95.9002 0.958933 93.7842 0.002879 91.577 0H31.6357C29.4285 0.002879 27.3125 0.958933 25.7518 2.65845C24.1911 4.35797 23.3132 6.66218 23.3105 9.06566V41.702C23.3132 44.1055 24.1911 46.4097 25.7518 48.1092C27.3125 49.8088 29.4285 50.7648 31.6357 50.7677ZM91.577 47.1414H31.6357C30.3109 47.1414 29.0404 46.5684 28.1036 45.5483C27.1669 44.5282 26.6406 43.1447 26.6406 41.702V21.7576H96.5721V41.702C96.5721 43.1447 96.0459 44.5282 95.1091 45.5483C94.1723 46.5684 92.9018 47.1414 91.577 47.1414ZM26.6406 14.5051H96.5721V18.1313H26.6406V14.5051ZM31.6357 3.62626H91.577C92.9018 3.62626 94.1723 4.19934 95.1091 5.21943C96.0459 6.23951 96.5721 7.62304 96.5721 9.06566V10.8788H26.6406V9.06566C26.6406 7.62304 27.1669 6.23951 28.1036 5.21943C29.0404 4.19934 30.3109 3.62626 31.6357 3.62626Z" fill="black"/>
<path d="M86.5819 29.0101C85.0594 29.0127 83.5839 29.585 82.4027 30.6311C81.4254 29.7675 80.2435 29.2232 78.9939 29.0611C77.7442 28.8989 76.478 29.1257 75.3418 29.715C74.2056 30.3044 73.246 31.2322 72.5742 32.391C71.9024 33.5498 71.5458 34.8922 71.5458 36.2627C71.5458 37.6331 71.9024 38.9755 72.5742 40.1343C73.246 41.2931 74.2056 42.2209 75.3418 42.8103C76.478 43.3996 77.7442 43.6264 78.9939 43.4643C80.2435 43.3021 81.4254 42.7578 82.4027 41.8942C83.231 42.6262 84.2088 43.1308 85.2536 43.3656C86.2984 43.6003 87.3796 43.5583 88.4064 43.2431C89.4332 42.9279 90.3754 42.3487 91.1538 41.5543C91.9322 40.7599 92.5239 39.7735 92.8792 38.6781C93.2345 37.5828 93.343 36.4105 93.1955 35.26C93.048 34.1094 92.6489 33.0143 92.0317 32.0668C91.4145 31.1192 90.5973 30.347 89.649 29.8151C88.7006 29.2832 87.6487 29.0071 86.5819 29.0101ZM78.2567 39.8889C77.5981 39.8889 76.9543 39.6762 76.4066 39.2778C75.859 38.8793 75.4322 38.313 75.1801 37.6504C74.9281 36.9878 74.8621 36.2586 74.9906 35.5552C75.1191 34.8518 75.4363 34.2056 75.902 33.6985C76.3677 33.1914 76.9611 32.846 77.607 32.7061C78.253 32.5661 78.9226 32.638 79.5311 32.9124C80.1396 33.1869 80.6597 33.6517 81.0256 34.248C81.3915 34.8443 81.5868 35.5454 81.5868 36.2627C81.5868 37.2244 81.2359 38.1468 80.6114 38.8268C79.9869 39.5069 79.1399 39.8889 78.2567 39.8889ZM86.5819 39.8889C85.7861 39.8912 85.0167 39.578 84.4174 39.0077C84.7493 38.1377 84.9202 37.2048 84.9202 36.2627C84.9202 35.3205 84.7493 34.3876 84.4174 33.5176C85.0167 32.9474 85.7861 32.6341 86.5819 32.6364C87.4651 32.6364 88.3121 33.0184 88.9366 33.6985C89.5611 34.3786 89.912 35.3009 89.912 36.2627C89.912 37.2244 89.5611 38.1468 88.9366 38.8268C88.3121 39.5069 87.4651 39.8889 86.5819 39.8889Z" fill="black"/>
<path d="M56.6112 39.8889H34.9658C34.5242 39.8889 34.1007 40.0799 33.7884 40.42C33.4761 40.76 33.3007 41.2212 33.3007 41.702C33.3007 42.1829 33.4761 42.6441 33.7884 42.9841C34.1007 43.3242 34.5242 43.5152 34.9658 43.5152H56.6112C57.0528 43.5152 57.4763 43.3242 57.7886 42.9841C58.1008 42.6441 58.2763 42.1829 58.2763 41.702C58.2763 41.2212 58.1008 40.76 57.7886 40.42C57.4763 40.0799 57.0528 39.8889 56.6112 39.8889Z" fill="black"/>
<path d="M34.9658 38.0758H36.6308C37.0724 38.0758 37.4959 37.8847 37.8082 37.5447C38.1204 37.2047 38.2958 36.7435 38.2958 36.2626C38.2958 35.7818 38.1204 35.3206 37.8082 34.9806C37.4959 34.6405 37.0724 34.4495 36.6308 34.4495H34.9658C34.5242 34.4495 34.1007 34.6405 33.7884 34.9806C33.4761 35.3206 33.3007 35.7818 33.3007 36.2626C33.3007 36.7435 33.4761 37.2047 33.7884 37.5447C34.1007 37.8847 34.5242 38.0758 34.9658 38.0758Z" fill="black"/>
<path d="M41.6259 38.0758H43.2909C43.7325 38.0758 44.1561 37.8847 44.4683 37.5447C44.7806 37.2047 44.956 36.7435 44.956 36.2626C44.956 35.7818 44.7806 35.3206 44.4683 34.9806C44.1561 34.6405 43.7325 34.4495 43.2909 34.4495H41.6259C41.1843 34.4495 40.7608 34.6405 40.4486 34.9806C40.1363 35.3206 39.9609 35.7818 39.9609 36.2626C39.9609 36.7435 40.1363 37.2047 40.4486 37.5447C40.7608 37.8847 41.1843 38.0758 41.6259 38.0758Z" fill="black"/>
<path d="M48.2861 38.0758H49.9511C50.3927 38.0758 50.8162 37.8847 51.1285 37.5447C51.4407 37.2047 51.6161 36.7435 51.6161 36.2626C51.6161 35.7818 51.4407 35.3206 51.1285 34.9806C50.8162 34.6405 50.3927 34.4495 49.9511 34.4495H48.2861C47.8445 34.4495 47.421 34.6405 47.1087 34.9806C46.7965 35.3206 46.621 35.7818 46.621 36.2626C46.621 36.7435 46.7965 37.2047 47.1087 37.5447C47.421 37.8847 47.8445 38.0758 48.2861 38.0758Z" fill="black"/>
<path d="M56.6113 34.4495H54.9462C54.5046 34.4495 54.0811 34.6405 53.7689 34.9806C53.4566 35.3206 53.2812 35.7818 53.2812 36.2626C53.2812 36.7435 53.4566 37.2047 53.7689 37.5447C54.0811 37.8847 54.5046 38.0758 54.9462 38.0758H56.6113C57.0529 38.0758 57.4764 37.8847 57.7886 37.5447C58.1009 37.2047 58.2763 36.7435 58.2763 36.2626C58.2763 35.7818 58.1009 35.3206 57.7886 34.9806C57.4764 34.6405 57.0529 34.4495 56.6113 34.4495Z" fill="black"/>
<path d="M99.7107 57.8389C98.8225 56.1786 97.3676 54.9678 95.6631 54.4706C93.9586 53.9734 92.1428 54.23 90.6113 55.1845L71.5966 67.1439C71.1652 66.2334 70.5633 65.4315 69.8297 64.79C69.096 64.1485 68.247 63.6817 67.3374 63.4197L44.7579 57.7755C40.4631 56.6963 35.9677 57.076 31.8771 58.8633L22.2199 63.0716C21.629 63.3292 20.9982 63.461 20.3617 63.4596H19.9804V59.8334C19.9804 59.3525 19.805 58.8913 19.4928 58.5513C19.1805 58.2112 18.757 58.0202 18.3154 58.0202H1.66504C1.22344 58.0202 0.799933 58.2112 0.487678 58.5513C0.175423 58.8913 0 59.3525 0 59.8334V94.2829C0 94.7637 0.175423 95.2249 0.487678 95.5649C0.799933 95.905 1.22344 96.096 1.66504 96.096H18.3154C18.757 96.096 19.1805 95.905 19.4928 95.5649C19.805 95.2249 19.9804 94.7637 19.9804 94.2829V92.4697H20.9795C21.3669 92.4697 21.7554 92.4909 22.145 92.5332L50.2725 95.5956C50.762 95.6488 51.2526 95.6754 51.7443 95.6754C54.548 95.6737 57.2959 94.8217 59.6799 93.2149L97.2781 67.7459C98.8046 66.7808 99.9176 65.1964 100.374 63.3395C100.829 61.4827 100.591 59.5048 99.7107 57.8389ZM16.6504 92.4697H3.33007V61.6465H16.6504V92.4697ZM95.5598 64.64L57.9183 90.1362C55.7311 91.608 53.1611 92.2582 50.6021 91.9874L22.478 88.9232C21.9785 88.8701 21.479 88.8435 20.9795 88.8435H19.9804V67.0859H20.3617C21.4208 67.0863 22.4702 66.8666 23.4537 66.4386L33.1109 62.2303C36.5726 60.7166 40.3773 60.3951 44.0119 61.3092L66.5282 66.93C67.1613 67.116 67.7301 67.5007 68.1639 68.0362C68.5976 68.5717 68.8771 69.2343 68.9675 69.9416C68.9712 70.0024 68.9778 70.0629 68.9875 70.1229C69.019 70.5397 68.9841 70.9592 68.8842 71.3631C68.7646 71.8312 68.5607 72.2689 68.2845 72.6506C68.0083 73.0323 67.6652 73.3504 67.2752 73.5866C66.8852 73.8227 66.4559 73.9721 66.0124 74.0262C65.5689 74.0803 65.12 74.0378 64.6917 73.9014L48.6008 70.4928C48.17 70.4079 47.7259 70.5113 47.3645 70.7804C47.0032 71.0495 46.7537 71.4627 46.6701 71.9306C46.5865 72.3985 46.6754 72.8835 46.9177 73.2805C47.16 73.6775 47.5362 73.9547 47.9647 74.0519L63.9491 77.4316C64.794 77.6784 65.6752 77.7415 66.5425 77.6174C67.4098 77.4933 68.2461 77.1843 69.0038 76.7082C69.7614 76.232 70.4255 75.598 70.9581 74.8423C71.4906 74.0867 71.8813 73.2242 72.1077 72.3041C72.2245 71.8297 72.297 71.3438 72.3242 70.8536L92.2763 58.3031C92.7815 57.9855 93.3543 57.8179 93.9376 57.8172C94.5209 57.8165 95.0941 57.9826 95.5999 58.299C96.1057 58.6153 96.5263 59.0707 96.8197 59.6197C97.113 60.1687 97.2688 60.792 97.2714 61.4271C97.2711 62.0793 97.1127 62.7199 96.8121 63.284C96.5116 63.8482 96.0796 64.3159 95.5598 64.64Z" fill="black"/>
<path d="M9.99023 65.2728C9.54864 65.2728 9.12513 65.4638 8.81287 65.8038C8.50062 66.1438 8.3252 66.605 8.3252 67.0859V68.899C8.3252 69.3799 8.50062 69.8411 8.81287 70.1811C9.12513 70.5211 9.54864 70.7122 9.99023 70.7122C10.4318 70.7122 10.8553 70.5211 11.1676 70.1811C11.4798 69.8411 11.6553 69.3799 11.6553 68.899V67.0859C11.6553 66.605 11.4798 66.1438 11.1676 65.8038C10.8553 65.4638 10.4318 65.2728 9.99023 65.2728Z" fill="black"/>
</svg>
