<svg width="32" height="30" viewBox="0 0 32 30" fill="none" xmlns="http://www.w3.org/2000/svg">
<path d="M16 0C7.17725 0 0 6.72867 0 15C0 23.2713 7.17725 30 16 30C24.8228 30 32 23.2713 32 15C32 6.72867 24.8228 0 16 0Z" fill="#546E7A"/>
<path d="M16 30C7.17725 30 0 23.2713 0 15C0 6.72867 7.17725 0 16 0C24.8228 0 32 6.72867 32 15C32 23.2713 24.8228 30 16 30ZM16 1.875C8.28003 1.875 2 7.76253 2 15C2 22.2375 8.28003 28.125 16 28.125C23.72 28.125 30 22.2375 30 15C30 7.76253 23.72 1.875 16 1.875Z" fill="white"/>
<path d="M23 15.9375H9C8.448 15.9375 8 15.5175 8 15C8 14.4825 8.448 14.0625 9 14.0625H23C23.552 14.0625 24 14.4825 24 15C24 15.5175 23.552 15.9375 23 15.9375Z" fill="white"/>
<path d="M16 22.5C15.448 22.5 15 22.08 15 21.5625V8.4375C15 7.92 15.448 7.5 16 7.5C16.552 7.5 17 7.92 17 8.4375V21.5625C17 22.08 16.552 22.5 16 22.5Z" fill="white"/>
</svg>
