<svg width="29" height="30" viewBox="0 0 29 30" fill="none" xmlns="http://www.w3.org/2000/svg">
<path d="M9.40234 19.4531H19.5977C20.0669 19.4531 20.4473 19.0596 20.4473 18.5742C20.4473 18.0888 20.0669 17.6953 19.5977 17.6953H9.40234C8.93313 17.6953 8.55273 18.0888 8.55273 18.5742C8.55273 19.0596 8.93313 19.4531 9.40234 19.4531Z" fill="white"/>
<path d="M9.40234 22.9688H19.5977C20.0669 22.9688 20.4473 22.5752 20.4473 22.0898C20.4473 21.6045 20.0669 21.2109 19.5977 21.2109H9.40234C8.93313 21.2109 8.55273 21.6045 8.55273 22.0898C8.55273 22.5752 8.93313 22.9688 9.40234 22.9688Z" fill="white"/>
<path d="M28.7511 4.94496L24.2199 0.257461C24.0605 0.0925781 23.8445 0 23.6191 0H0.849609C0.380398 0 0 0.393516 0 0.878906V29.1211C0 29.6065 0.380398 30 0.849609 30C1.24111 30 27.8952 30 28.1504 30C28.6196 30 29 29.6065 29 29.1211V5.56641C29 5.33326 28.9104 5.10973 28.7511 4.94496ZM6.85352 1.75781H18.748V7.61719H6.85352V1.75781ZM22.1465 28.2422H6.85352V15.9375H22.1465V28.2422ZM27.3008 28.2422H23.8457V15.0586C23.8457 14.5732 23.4653 14.1797 22.9961 14.1797H6.00391C5.5347 14.1797 5.1543 14.5732 5.1543 15.0586V28.2422H1.69922V1.75781H5.1543V8.49609C5.1543 8.98148 5.5347 9.375 6.00391 9.375H19.5977C20.0669 9.375 20.4473 8.98148 20.4473 8.49609V1.75781H23.2672L27.3008 5.93045V28.2422Z" fill="white"/>
<path d="M9.40234 26.4844H19.5977C20.0669 26.4844 20.4473 26.0909 20.4473 25.6055C20.4473 25.1201 20.0669 24.7266 19.5977 24.7266H9.40234C8.93313 24.7266 8.55273 25.1201 8.55273 25.6055C8.55273 26.0909 8.93313 26.4844 9.40234 26.4844Z" fill="white"/>
</svg>
