<svg width="32" height="29" viewBox="0 0 32 29" fill="none" xmlns="http://www.w3.org/2000/svg">
<path d="M16.0577 17.9684C15.7589 17.6976 15.4808 17.4155 15.2226 17.1232C11.6839 13.1198 11.9627 7.2594 16.0577 3.54774C17.7588 2.00632 19.8691 1.06207 22.0715 0.714069C18.5844 0.163013 14.866 1.10727 12.1727 3.54774C8.07773 7.25945 7.79892 13.1198 11.3376 17.1232C11.5958 17.4156 11.8739 17.6977 12.1727 17.9684C12.4715 18.2392 12.7828 18.4913 13.1053 18.7253C15.6877 20.5999 18.9701 21.2918 22.07 20.8023C20.2549 20.5152 18.5025 19.8231 16.9903 18.7253C16.6678 18.4913 16.3565 18.2392 16.0577 17.9684Z" fill="white"/>
<path d="M28.0853 3.54763C26.3841 2.00621 24.2739 1.06196 22.0715 0.713959C19.869 1.06196 17.7589 2.00621 16.0578 3.54763C11.9627 7.25928 11.684 13.1197 15.2227 17.1231C15.4809 17.4154 15.759 17.6975 16.0578 17.9683C16.3566 18.2391 16.6679 18.4911 16.9904 18.7251C18.5027 19.8229 20.255 20.5151 22.0701 20.8021C24.2731 20.4542 26.3838 19.51 28.0853 17.9683C32.4791 13.9859 32.4791 7.53013 28.0853 3.54763Z" fill="#514E73"/>
<path d="M17.0968 7.2463C17.0968 7.24517 17.0974 7.24404 17.098 7.24347C17.532 6.44728 18.0896 5.75598 18.7514 5.15366C19.842 4.16529 21.1511 3.49189 22.5393 3.13375C19.5784 2.36899 16.2614 3.04686 13.9367 5.15366C13.2749 5.75598 12.7173 6.44728 12.2833 7.24347C12.2827 7.24404 12.2821 7.24517 12.2821 7.2463C10.7026 10.08 11.1593 13.8457 13.9411 16.3658C16.3231 18.5248 19.6222 19.1204 22.5211 18.3806C21.1567 18.0283 19.8579 17.3648 18.7558 16.3658C15.9741 13.8457 15.5173 10.08 17.0968 7.2463Z" fill="white"/>
<path d="M27.9983 14.2272C28.3211 13.626 28.3676 13.3986 28.3871 13.3809C29.4649 10.5694 28.7527 7.3575 26.3168 5.15027C25.2269 4.16224 23.9219 3.49088 22.5393 3.13376C21.1511 3.49184 19.842 4.1653 18.7514 5.15367C18.0896 5.75599 17.532 6.44729 17.098 7.24348C17.0974 7.24405 17.0968 7.24518 17.0968 7.24631C15.5173 10.08 15.974 13.8457 18.7558 16.3658C19.858 17.3648 21.1567 18.0284 22.5211 18.3807C24.8154 17.7952 26.8589 16.3737 27.9983 14.2272Z" fill="#D4E9FF"/>
<path d="M11.3376 17.1232L8.63654 19.5704L10.4049 21.173L13.1053 18.7252L11.3376 17.1232Z" fill="#FFE985"/>
<path d="M8.52847 21.0746L3.01823 26.0688C2.3413 26.6819 2.1338 27.5586 2.3948 28.3337C3.25005 28.5703 4.21754 28.3822 4.89398 27.7687L10.4048 22.775C10.893 22.3326 10.893 21.6154 10.4048 21.173L10.2962 21.0745C9.8081 20.6322 9.01672 20.6322 8.52847 21.0746Z" fill="#ED4C74"/>
<path d="M27.9581 15.4348C30.2904 12.2313 30.0043 7.86461 26.9266 4.90537C23.854 1.98668 19.1321 1.5386 15.6391 3.29717C15.3373 3.44908 15.2286 3.79402 15.3962 4.06748C15.5638 4.34106 15.9445 4.43944 16.2462 4.28759C19.4411 2.67894 23.461 3.25469 26.0194 5.68497C28.6591 8.22308 28.9564 12.0064 26.9142 14.8113C24.1012 18.6834 18.0257 19.2669 14.383 15.9651C11.9284 13.7415 11.2173 10.1554 12.9903 7.2372C13.1567 6.96306 13.0464 6.61857 12.744 6.46779C12.4415 6.31713 12.0615 6.41699 11.895 6.69107C11.8567 6.75423 11.7885 6.87198 11.7229 6.99263H11.7229C9.90492 10.3511 10.732 14.2597 13.499 16.7663C17.6958 20.5703 24.706 19.9115 27.9581 15.4348Z" fill="black"/>
<path d="M6.42673 19.1698L0.916678 24.1639C-0.305007 25.2703 -0.306007 27.0621 0.916366 28.1691C2.13755 29.2766 4.11461 29.277 5.33604 28.1692L10.847 23.1756C11.4349 22.6427 11.5407 21.8601 11.2137 21.2411L13.1614 19.4757C17.8338 22.5496 24.3631 22.1422 28.5273 18.3689C33.1575 14.1722 33.1575 7.34377 28.5273 3.14705C23.8966 -1.04894 16.3616 -1.04911 11.7307 3.1471C7.56648 6.92151 7.11817 12.8391 10.5093 17.0725L8.56141 18.8374C7.87854 18.5412 7.01492 18.6368 6.42673 19.1698ZM11.7307 18.3688C11.8777 18.502 12.0295 18.6321 12.1845 18.7586L10.4049 20.3718L9.52066 19.5705L11.3007 17.9577C11.4403 18.0981 11.5837 18.2357 11.7307 18.3688ZM9.96291 22.3745L4.45186 27.3682C3.71942 28.0325 2.5338 28.0331 1.80036 27.3679C1.06724 26.7041 1.0668 25.6296 1.80049 24.9651L7.31073 19.9709C7.55429 19.7501 7.95085 19.75 8.19441 19.9709L9.96285 21.5736C10.2066 21.7943 10.2066 22.1537 9.96291 22.3745ZM12.6147 3.94817C16.7578 0.194036 23.4996 0.193413 27.6433 3.94817C31.7861 7.7031 31.7861 13.8129 27.6433 17.5677C23.501 21.3211 16.7911 21.3531 12.6147 17.5677C8.44329 13.7878 8.4681 7.70666 12.6147 3.94817Z" fill="black"/>
<path d="M13.5148 5.56494C13.7605 5.77173 14.1443 5.76663 14.383 5.55078C14.6212 5.33435 14.6268 4.98652 14.398 4.76392C14.3936 4.75883 14.3886 4.7543 14.383 4.7492C14.1386 4.52824 13.7429 4.52824 13.4985 4.7492C13.2547 4.97072 13.2547 5.32931 13.4985 5.55078C13.5042 5.55587 13.5091 5.56041 13.5148 5.56494Z" fill="black"/>
</svg>
