<svg width="120" height="120" viewBox="0 0 120 120" fill="none" xmlns="http://www.w3.org/2000/svg">
<path d="M79.9927 14V86C79.9927 89.1826 78.7285 92.2348 76.4783 94.4853C74.2281 96.7357 71.1761 98 67.9938 98H27.9975C25.8905 97.9987 23.8208 97.4438 21.9957 96.3907C20.1706 95.3377 18.6543 93.8236 17.5985 92V91.98C16.5461 90.1631 15.994 88.0997 15.9986 86V14C15.9986 10.8174 17.2628 7.76516 19.513 5.51472C21.7632 3.26428 24.8152 2 27.9975 2H67.9938C71.0193 2.00156 73.9324 3.14609 76.15 5.20438C78.3676 7.26267 79.7258 10.0828 79.9527 13.1C79.9727 13.4 79.9927 13.7 79.9927 14Z" fill="#5F7D95"/>
<path d="M79.9927 18.5V73.48C76.7772 72.0859 73.8325 70.1361 71.2935 67.72L57.2348 70.34L64.5141 58.02C62.9341 54.4089 62.0812 50.5218 62.0041 46.5808C61.9269 42.6399 62.6271 38.7223 64.0646 35.0521C65.5021 31.382 67.6487 28.031 70.3817 25.1909C73.1147 22.3508 76.3806 20.0772 79.9927 18.5Z" fill="#5F7D95"/>
<path d="M117.529 47.2C116.149 55.0337 111.714 61.9985 105.2 66.5629C98.6859 71.1273 90.626 72.9175 82.7924 71.54C81.848 71.3787 80.9133 71.165 79.9927 70.9C75.2311 69.5938 70.8679 67.1268 67.2939 63.72L53.2352 66.34L60.5145 54.02C58.339 49.0494 57.5527 43.5818 58.2392 38.1996C58.9257 32.8174 61.0594 27.7222 64.413 23.4571C67.7665 19.1919 72.2142 15.9166 77.2821 13.9799C82.3501 12.0433 87.8485 11.518 93.1914 12.46C101.024 13.8405 107.989 18.2758 112.553 24.7904C117.117 31.305 118.907 39.3657 117.529 47.2Z" fill="white"/>
<path d="M77.9929 36V60C77.996 61.0599 78.4184 62.0755 79.1678 62.8249C79.9172 63.5744 80.9327 63.9968 81.9925 64H101.991C103.05 63.9968 104.066 63.5744 104.815 62.8249C105.565 62.0755 105.987 61.0599 105.99 60V36H77.9929Z" fill="white"/>
<path d="M101.991 52V56C101.987 57.0599 101.565 58.0755 100.816 58.8249C100.066 59.5744 99.0508 59.9968 97.991 60H77.9929C76.9331 59.9968 75.9176 59.5744 75.1682 58.8249C74.4188 58.0755 73.9964 57.0599 73.9932 56V52H101.991Z" fill="#D1D3D4"/>
<path d="M73.9932 32H101.991V52H73.9932V32Z" fill="#5F7D95"/>
<path d="M51.9953 82C53.0551 82.0032 54.0706 82.4256 54.82 83.1751C55.5693 83.9245 55.9918 84.9401 55.9949 86C55.9871 87.0584 55.5632 88.0713 54.8148 88.8197C54.0664 89.5682 53.0536 89.9921 51.9953 90H43.996C42.9362 89.9968 41.9207 89.5744 41.1714 88.8249C40.422 88.0755 39.9996 87.0599 39.9964 86C40.0042 84.9416 40.4282 83.9287 41.1765 83.1803C41.9249 82.4318 42.9377 82.0079 43.996 82H51.9953Z" fill="#E6E7E8"/>
<path d="M41.7962 83.42C41.7963 84.4727 41.5205 85.5071 40.9963 86.42L40.3364 87.58C40.1111 87.0838 39.9951 86.545 39.9964 86C39.9936 85.4748 40.0966 84.9544 40.2994 84.4699C40.5021 83.9854 40.8003 83.5467 41.1763 83.18C41.3551 82.9972 41.5491 82.83 41.7562 82.68C41.7762 82.92 41.7962 83.18 41.7962 83.42Z" fill="#E6E7E8"/>
<path d="M41.6562 36.34C42.9696 37.6499 43.7881 39.3748 43.9721 41.2207C44.1562 43.0666 43.6943 44.9191 42.6654 46.4626C41.6365 48.0061 40.1042 49.1449 38.3296 49.6849C36.5551 50.2249 34.6482 50.1326 32.9341 49.4239C31.2199 48.7151 29.8046 47.4338 28.9295 45.7982C28.0543 44.1626 27.7734 42.2741 28.1347 40.4546C28.496 38.6351 29.4771 36.9973 30.9107 35.8202C32.3444 34.6432 34.1419 33.9999 35.9967 34C38.1178 34.0038 40.1517 34.8447 41.6562 36.34Z" fill="#5F7D95"/>
<path d="M37.6566 32.34C38.97 33.6499 39.7885 35.3748 39.9725 37.2207C40.1566 39.0666 39.6948 40.9191 38.6658 42.4626C37.6369 44.0061 36.1046 45.1449 34.3301 45.6849C32.5555 46.2249 30.6486 46.1326 28.9345 45.4239C27.2204 44.7151 25.8051 43.4338 24.9299 41.7982C24.0547 40.1626 23.7738 38.2741 24.1351 36.4546C24.4964 34.6351 25.4775 32.9973 26.9112 31.8202C28.3448 30.6432 30.1423 29.9999 31.9972 30C34.1182 30.0038 36.1521 30.8447 37.6566 32.34Z" fill="white"/>
<path d="M37.7966 79.42C37.798 78.098 37.3629 76.8124 36.5587 75.7632C35.7545 74.7139 34.6263 73.9597 33.3494 73.6176C32.0725 73.2756 30.7184 73.3649 29.4974 73.8716C28.2765 74.3784 27.2571 75.2742 26.5976 76.42L17.5984 91.98C16.546 90.1631 15.994 88.0997 15.9986 86V54.04C15.3355 54.1319 14.706 54.3888 14.168 54.7872C13.6299 55.1855 13.2004 55.7126 12.9189 56.32L3.83972 76.02C2.62474 78.6393 1.99682 81.4925 1.99989 84.38V120L33.9969 119.98V111.3C33.9926 109.122 33.3983 106.987 32.2771 105.12L27.9975 98L36.9966 82.42C37.5208 81.5071 37.7966 80.4727 37.7966 79.42Z" fill="#FFC477"/>
<path d="M31.9971 8H35.9968V12H31.9971V8Z" fill="black"/>
<path d="M39.9964 8H55.9949V12H39.9964V8Z" fill="black"/>
<path d="M77.9929 86C77.9897 88.6512 76.9352 91.1929 75.0607 93.0676C73.1862 94.9422 70.6447 95.9968 67.9938 96H31.4612L38.3365 84.092C38.1191 84.705 38.0042 85.3496 37.9966 86C37.9966 87.5913 38.6287 89.1174 39.7538 90.2426C40.8789 91.3679 42.4049 92 43.996 92H51.9953C53.5864 92 55.1124 91.3679 56.2375 90.2426C57.3626 89.1174 57.9947 87.5913 57.9947 86C57.9947 84.4087 57.3626 82.8826 56.2375 81.7574C55.1124 80.6321 53.5864 80 51.9953 80H43.996C43.0438 80.0018 42.1058 80.2308 41.2599 80.6681C40.414 81.1053 39.6846 81.7382 39.1325 82.514C39.9267 80.6429 39.9769 78.5392 39.273 76.6323C38.5691 74.7254 37.1641 73.159 35.3448 72.2528C33.5254 71.3466 31.4288 71.1689 29.4829 71.756C27.537 72.3431 25.8885 73.6507 24.8738 75.412L18.0744 87.196C18.0251 86.7992 17.9997 86.3998 17.9984 86V14C18.0016 11.3488 19.0561 8.80712 20.9306 6.93244C22.8051 5.05776 25.3466 4.00318 27.9975 4H67.9938C69.7481 4.00408 71.4708 4.46786 72.9901 5.34514C74.5094 6.22242 75.7723 7.48256 76.653 9L80.1147 7C78.8819 4.87588 77.1142 3.11187 74.9875 1.8837C72.8609 0.655522 70.4495 0.00605769 67.9938 0H27.9975C24.2861 0.00423472 20.728 1.48059 18.1036 4.10518C15.4793 6.72977 14.003 10.2883 13.9988 14V52.6C12.7262 53.1923 11.7015 54.2121 11.1031 55.482L2.02591 75.176C0.682164 78.0648 -0.00946261 81.2139 9.77795e-05 84.4V120H3.99973V84.4C3.9908 81.7949 4.55616 79.2198 5.65557 76.858L13.9988 58.754V86C13.9974 88.3887 14.6096 90.7378 15.7766 92.822C15.9272 93.1592 16.1682 93.4481 16.4729 93.6568C16.7776 93.8654 17.1341 93.9856 17.5029 94.004C17.8717 94.0225 18.2384 93.9384 18.5623 93.7612C18.8863 93.584 19.1549 93.3205 19.3383 93L28.3375 77.412C28.8716 76.5008 29.7445 75.8378 30.7656 75.5678C31.7867 75.2979 32.8731 75.4428 33.7877 75.9709C34.7024 76.499 35.3711 77.3676 35.6478 78.3869C35.9245 79.4063 35.7868 80.4938 35.2648 81.412L26.2657 97C26.0869 97.3094 25.9942 97.6611 25.9974 98.0185C26.0006 98.3758 26.0994 98.7258 26.2837 99.032L30.5673 106.152C31.5016 107.71 31.9958 109.492 31.9971 111.308V119.98H35.9968V111.308C35.9964 108.766 35.3052 106.272 33.9969 104.092L31.5352 100H67.9938C71.7052 99.9958 75.2634 98.5194 77.8877 95.8948C80.512 93.2702 81.9883 89.7117 81.9925 86V76H77.9929V86ZM43.996 84H51.9953C52.5257 84 53.0343 84.2107 53.4094 84.5858C53.7844 84.9609 53.9951 85.4696 53.9951 86C53.9951 86.5304 53.7844 87.0391 53.4094 87.4142C53.0343 87.7893 52.5257 88 51.9953 88H43.996C43.4656 88 42.957 87.7893 42.5819 87.4142C42.2069 87.0391 41.9962 86.5304 41.9962 86C41.9962 85.4696 42.2069 84.9609 42.5819 84.5858C42.957 84.2107 43.4656 84 43.996 84Z" fill="black"/>
<path d="M114.21 23.64C109.712 17.2017 103.004 12.6425 95.3628 10.8303C87.7216 9.01803 79.6809 10.0794 72.7715 13.8124C65.8622 17.5453 60.5667 23.689 57.8935 31.0738C55.2203 38.4587 55.356 46.5688 58.2747 53.86L51.5153 65.32C51.3204 65.6499 51.2242 66.0288 51.2384 66.4117C51.2526 66.7947 51.3765 67.1655 51.5953 67.48C51.8198 67.7939 52.1288 68.0376 52.4864 68.1828C52.8439 68.328 53.2354 68.3686 53.6151 68.3L66.6739 65.86C71.1082 69.8354 76.5673 72.489 82.4325 73.52C84.2755 73.8369 86.1419 73.9975 88.0119 74C93.8653 73.9984 99.6061 72.391 104.609 69.3528C109.613 66.3146 113.687 61.9621 116.388 56.769C119.09 51.5758 120.315 45.7411 119.931 39.8998C119.547 34.0585 117.568 28.4345 114.21 23.64ZM115.569 46.86C114.69 51.8492 112.473 56.5063 109.156 60.335C105.838 64.1637 101.544 67.0205 96.7316 68.601C91.9187 70.1814 86.7673 70.4264 81.8261 69.3097C76.885 68.1931 72.3394 65.7566 68.6737 62.26C68.2987 61.9118 67.8056 61.7189 67.2939 61.72C67.1735 61.7167 67.0531 61.7234 66.9339 61.74L57.1948 63.56L62.2343 55.04C62.391 54.7656 62.4832 54.4591 62.504 54.1438C62.5248 53.8285 62.4736 53.5126 62.3543 53.22C60.1238 48.172 59.4485 42.5737 60.4145 37.14C61.7033 29.8253 65.8449 23.3223 71.928 19.0615C74.94 16.9517 78.3381 15.4559 81.9282 14.6596C85.5182 13.8632 89.23 13.7818 92.8515 14.42C96.473 15.0582 99.9334 16.4036 103.035 18.3792C106.137 20.3549 108.819 22.9222 110.928 25.9345C113.038 28.9469 114.534 32.3453 115.33 35.9356C116.126 39.526 116.208 43.2381 115.569 46.86Z" fill="black"/>
<path d="M101.991 30H95.9912V28C95.9912 25.8783 95.1484 23.8434 93.6483 22.3431C92.1481 20.8429 90.1135 20 87.9919 20C85.8704 20 83.8357 20.8429 82.3356 22.3431C80.8354 23.8434 79.9927 25.8783 79.9927 28V30H73.9932C73.4628 30 72.9542 30.2107 72.5791 30.5858C72.2041 30.9609 71.9934 31.4696 71.9934 32V56C71.9982 57.5898 72.6318 59.1132 73.7558 60.2374C74.8799 61.3616 76.4032 61.9953 77.9929 62H97.991C99.5807 61.9953 101.104 61.3616 102.228 60.2374C103.352 59.1132 103.986 57.5898 103.99 56V32C103.99 31.4696 103.78 30.9609 103.405 30.5858C103.03 30.2107 102.521 30 101.991 30ZM83.9923 28C83.9923 26.9391 84.4137 25.9217 85.1638 25.1716C85.9138 24.4214 86.9312 24 87.9919 24C89.0527 24 90.07 24.4214 90.8201 25.1716C91.5702 25.9217 91.9916 26.9391 91.9916 28V30H83.9923V28ZM99.9908 56C99.9908 56.5304 99.7801 57.0391 99.4051 57.4142C99.03 57.7893 98.5214 58 97.991 58H77.9929C77.4625 58 76.9538 57.7893 76.5788 57.4142C76.2037 57.0391 75.993 56.5304 75.993 56V54H99.9908V56ZM99.9908 50H75.993V34H79.9927V38H83.9923V34H91.9916V38H95.9912V34H99.9908V50Z" fill="black"/>
<path d="M40.5824 26.586L37.5026 29.666C35.4297 28.2938 32.921 27.7405 30.4632 28.1133C28.0054 28.4862 25.7736 29.7586 24.2008 31.6839C22.628 33.6091 21.8261 36.05 21.9508 38.533C22.0755 41.016 23.1178 43.3642 24.8756 45.1222C26.6334 46.8801 28.9814 47.9226 31.4642 48.0473C33.947 48.172 36.3876 47.3701 38.3127 45.7971C40.2378 44.2241 41.5101 41.9921 41.8829 39.5341C42.2557 37.0761 41.7024 34.5672 40.3304 32.494L43.4101 29.414L40.5824 26.586ZM37.9966 38C37.9966 39.1867 37.6447 40.3467 36.9855 41.3334C36.3263 42.3201 35.3893 43.0891 34.293 43.5433C33.1968 43.9974 31.9905 44.1162 30.8267 43.8847C29.6629 43.6532 28.5939 43.0818 27.7549 42.2426C26.9159 41.4035 26.3445 40.3344 26.113 39.1705C25.8815 38.0067 26.0003 36.8003 26.4544 35.7039C26.9085 34.6075 27.6774 33.6705 28.664 33.0112C29.6506 32.3519 30.8106 32 31.9971 32C32.888 32.0034 33.7666 32.2086 34.5669 32.6L28.5835 38.584L31.4112 41.412L37.3966 35.43C37.788 36.2304 37.9931 37.109 37.9966 38Z" fill="black"/>
<path d="M45.9958 32H53.9951V36H45.9958V32Z" fill="black"/>
<path d="M45.9958 40H53.9951V44H45.9958V40Z" fill="black"/>
</svg>
