<svg width="120" height="120" viewBox="0 0 120 120" fill="none" xmlns="http://www.w3.org/2000/svg">
<path d="M107.586 26.4407V95.5932C107.586 98.8298 106.278 101.934 103.95 104.222C101.622 106.511 98.4647 107.797 95.1724 107.797H37.2414C33.949 107.797 30.7915 106.511 28.4635 104.222C26.1355 101.934 24.8276 98.8298 24.8276 95.5932V26.4407H107.586Z" fill="#546E7A"/>
<path d="M101.379 26.4407V54.9153C101.379 67.8614 96.1478 80.2773 86.8357 89.4316C77.5235 98.586 64.8935 103.729 51.7242 103.729H31.0345C29.8643 103.727 28.7004 103.562 27.5773 103.239C28.7383 104.661 30.2094 105.809 31.882 106.598C33.5547 107.387 35.3862 107.797 37.2414 107.797H95.1724C98.4648 107.797 101.622 106.511 103.95 104.222C106.278 101.934 107.586 98.8298 107.586 95.5932V26.4407H101.379Z" fill="#546E7A"/>
<path d="M86.8966 63.0508H12.4138C11.3164 63.0508 10.2639 63.4794 9.48785 64.2423C8.71184 65.0051 8.27588 66.0398 8.27588 67.1186V107.797C8.27915 108.874 8.71616 109.907 9.49147 110.669C10.2668 111.432 11.3174 111.861 12.4138 111.864H86.8966C87.993 111.861 89.0436 111.432 89.8189 110.669C90.5942 109.907 91.0312 108.874 91.0345 107.797V67.1186C91.0345 66.0398 90.5985 65.0051 89.8225 64.2423C89.0465 63.4794 87.994 63.0508 86.8966 63.0508Z" fill="#F15A29"/>
<path d="M86.8966 63.0508V103.729C86.8933 104.807 86.4563 105.839 85.681 106.602C84.9057 107.364 83.8551 107.793 82.7586 107.797H8.27588C8.27915 108.874 8.71616 109.907 9.49147 110.669C10.2668 111.432 11.3174 111.861 12.4138 111.864H86.8966C87.993 111.861 89.0436 111.432 89.8189 110.669C90.5942 109.907 91.0312 108.874 91.0345 107.797V67.1186C91.0345 66.0398 90.5985 65.0051 89.8225 64.2423C89.0465 63.4794 87.994 63.0508 86.8966 63.0508Z" fill="#F15A29"/>
<path d="M107.586 95.5932C107.586 98.8298 106.278 101.934 103.95 104.222C101.622 106.511 98.4648 107.797 95.1724 107.797H107.586C110.879 107.797 114.036 106.511 116.364 104.222C118.692 101.934 120 98.8298 120 95.5932V26.4407H107.586V95.5932Z" fill="#546E7A"/>
<path d="M113.793 26.4407V95.5932C113.793 98.8298 112.485 101.934 110.157 104.222C107.829 106.511 104.672 107.797 101.379 107.797H107.586C110.879 107.797 114.036 106.511 116.364 104.222C118.692 101.934 120 98.8298 120 95.5932V26.4407H113.793Z" fill="#546E7A"/>
<path d="M78.6207 71.1864H4.13793C3.04048 71.1864 1.98798 71.615 1.21197 72.3779C0.435959 73.1407 0 74.1754 0 75.2542V115.932C0.00327461 117.01 0.440286 118.043 1.21559 118.805C1.99089 119.567 3.04149 119.997 4.13793 120H78.6207C79.7171 119.997 80.7677 119.567 81.543 118.805C82.3183 118.043 82.7553 117.01 82.7586 115.932V75.2542C82.7586 74.1754 82.3227 73.1407 81.5466 72.3779C80.7706 71.615 79.7181 71.1864 78.6207 71.1864Z" fill="#546E7A"/>
<path d="M78.6207 71.1864H74.4828V99.661C74.4697 103.972 72.7216 108.104 69.6204 111.152C66.5192 114.201 62.3168 115.919 57.931 115.932H0C0.00327461 117.01 0.440286 118.043 1.21559 118.805C1.99089 119.567 3.04149 119.997 4.13793 120H78.6207C79.7171 119.997 80.7677 119.567 81.543 118.805C82.3183 118.043 82.7553 117.01 82.7586 115.932V75.2542C82.7586 74.1754 82.3227 73.1407 81.5467 72.3779C80.7706 71.615 79.7181 71.1864 78.6207 71.1864Z" fill="#546E7A"/>
<path d="M0 79.322H82.7586V87.4576H0V79.322Z" fill="white"/>
<path d="M74.4828 79.322H82.7586V87.4576H74.4828V79.322Z" fill="white"/>
<path d="M68.2759 111.864C71.7038 111.864 74.4828 109.133 74.4828 105.763C74.4828 102.393 71.7038 99.661 68.2759 99.661C64.8479 99.661 62.069 102.393 62.069 105.763C62.069 109.133 64.8479 111.864 68.2759 111.864Z" fill="#F15A29"/>
<path d="M45.5173 46.7797C48.9452 46.7797 51.7242 44.0478 51.7242 40.678C51.7242 37.3081 48.9452 34.5763 45.5173 34.5763C42.0893 34.5763 39.3104 37.3081 39.3104 40.678C39.3104 44.0478 42.0893 46.7797 45.5173 46.7797Z" fill="white"/>
<path d="M86.8965 46.7797C90.3245 46.7797 93.1034 44.0478 93.1034 40.678C93.1034 37.3081 90.3245 34.5763 86.8965 34.5763C83.4686 34.5763 80.6896 37.3081 80.6896 40.678C80.6896 44.0478 83.4686 46.7797 86.8965 46.7797Z" fill="white"/>
<path d="M39.3104 103.729H12.4138C11.8651 103.729 11.3388 103.943 10.9508 104.325C10.5628 104.706 10.3448 105.223 10.3448 105.763C10.3448 106.302 10.5628 106.819 10.9508 107.201C11.3388 107.582 11.8651 107.797 12.4138 107.797H39.3104C39.8591 107.797 40.3853 107.582 40.7733 107.201C41.1614 106.819 41.3793 106.302 41.3793 105.763C41.3793 105.223 41.1614 104.706 40.7733 104.325C40.3853 103.943 39.8591 103.729 39.3104 103.729Z" fill="#F1F2F2"/>
<path d="M109.655 26.4407H105.517V22.3729C105.517 17.5181 103.555 12.8621 100.063 9.42923C96.5713 5.99636 91.8351 4.0678 86.8966 4.0678C81.958 4.0678 77.2218 5.99636 73.7297 9.42923C70.2377 12.8621 68.2759 17.5181 68.2759 22.3729V26.4407H64.1379V22.3729C64.1379 16.4392 66.5357 10.7486 70.8038 6.55287C75.0719 2.35714 80.8606 0 86.8966 0C92.9325 0 98.7213 2.35714 102.989 6.55287C107.257 10.7486 109.655 16.4392 109.655 22.3729V26.4407Z" fill="#546E7A"/>
<path d="M86.8966 42.7119C86.3479 42.7119 85.8216 42.4976 85.4336 42.1162C85.0456 41.7347 84.8276 41.2174 84.8276 40.678V22.3729C84.8276 17.5181 82.8658 12.8621 79.3737 9.42923C75.8817 5.99636 71.1454 4.0678 66.2069 4.0678C61.2684 4.0678 56.5322 5.99636 53.0401 9.42923C49.5481 12.8621 47.5862 17.5181 47.5862 22.3729V40.678C47.5862 41.2174 47.3683 41.7347 46.9802 42.1162C46.5922 42.4976 46.066 42.7119 45.5173 42.7119C44.9685 42.7119 44.4423 42.4976 44.0543 42.1162C43.6663 41.7347 43.4483 41.2174 43.4483 40.678V22.3729C43.4483 16.4392 45.8461 10.7486 50.1141 6.55287C54.3822 2.35714 60.171 0 66.2069 0C72.2429 0 78.0316 2.35714 82.2997 6.55287C86.5678 10.7486 88.9655 16.4392 88.9655 22.3729V40.678C88.9655 41.2174 88.7476 41.7347 88.3596 42.1162C87.9716 42.4976 87.4453 42.7119 86.8966 42.7119Z" fill="#546E7A"/>
<path d="M57.931 111.864C61.359 111.864 64.1379 109.133 64.1379 105.763C64.1379 102.393 61.359 99.661 57.931 99.661C54.503 99.661 51.7241 102.393 51.7241 105.763C51.7241 109.133 54.503 111.864 57.931 111.864Z" fill="#F7941D"/>
</svg>
